solid OpenSCAD_Model
  facet normal 0 0 -1
    outer loop
      vertex 10.7518 0 0
      vertex -10.75 0 0
      vertex 10.7518 0.0992737 0
    endloop
  endfacet
  facet normal 0 0 -1
    outer loop
      vertex 14.6094 2.51627 0
      vertex 17 12.0526 0
      vertex 17 2 0
    endloop
  endfacet
  facet normal 0 0 -1
    outer loop
      vertex 14.425 2.58977 0
      vertex 17 12.0526 0
      vertex 14.6094 2.51627 0
    endloop
  endfacet
  facet normal 0 0 -1
    outer loop
      vertex 15.2803 2.09593 0
      vertex 17 2 0
      vertex 15.3853 2 0
    endloop
  endfacet
  facet normal 0 0 -1
    outer loop
      vertex 15.1244 2.21893 0
      vertex 17 2 0
      vertex 15.2803 2.09593 0
    endloop
  endfacet
  facet normal 0 0 -1
    outer loop
      vertex 14.9601 2.33037 0
      vertex 17 2 0
      vertex 15.1244 2.21893 0
    endloop
  endfacet
  facet normal 0 0 -1
    outer loop
      vertex 14.7881 2.42966 0
      vertex 17 2 0
      vertex 14.9601 2.33037 0
    endloop
  endfacet
  facet normal 0 0 -1
    outer loop
      vertex 14.6094 2.51627 0
      vertex 17 2 0
      vertex 14.7881 2.42966 0
    endloop
  endfacet
  facet normal 0 0 -1
    outer loop
      vertex 14.2357 2.64975 0
      vertex 17 12.0526 0
      vertex 14.425 2.58977 0
    endloop
  endfacet
  facet normal 0 0 -1
    outer loop
      vertex 14.0426 2.69594 0
      vertex 17 12.0526 0
      vertex 14.2357 2.64975 0
    endloop
  endfacet
  facet normal 0 0 -1
    outer loop
      vertex 13.8466 2.72806 0
      vertex 17 12.0526 0
      vertex 14.0426 2.69594 0
    endloop
  endfacet
  facet normal 0 0 -1
    outer loop
      vertex 13.6489 2.74596 0
      vertex 17 12.0526 0
      vertex 13.8466 2.72806 0
    endloop
  endfacet
  facet normal 0 0 -1
    outer loop
      vertex 13.4503 2.74954 0
      vertex 17 12.0526 0
      vertex 13.6489 2.74596 0
    endloop
  endfacet
  facet normal 0 0 -1
    outer loop
      vertex 13.2521 2.7388 0
      vertex 17 12.0526 0
      vertex 13.4503 2.74954 0
    endloop
  endfacet
  facet normal 0 0 -1
    outer loop
      vertex 13.0551 2.71376 0
      vertex 17 12.0526 0
      vertex 13.2521 2.7388 0
    endloop
  endfacet
  facet normal 0 0 -1
    outer loop
      vertex 12.8604 2.67459 0
      vertex 17 12.0526 0
      vertex 13.0551 2.71376 0
    endloop
  endfacet
  facet normal -0 0 -1
    outer loop
      vertex 17 12.0526 0
      vertex 12.8604 2.67459 0
      vertex 16.4308 13 0
    endloop
  endfacet
  facet normal 0 0 -1
    outer loop
      vertex 12.6691 2.62146 0
      vertex 16.4308 13 0
      vertex 12.8604 2.67459 0
    endloop
  endfacet
  facet normal 0 0 -1
    outer loop
      vertex 12.4821 2.55467 0
      vertex 16.4308 13 0
      vertex 12.6691 2.62146 0
    endloop
  endfacet
  facet normal 0 0 -1
    outer loop
      vertex 12.3004 2.47456 0
      vertex 16.4308 13 0
      vertex 12.4821 2.55467 0
    endloop
  endfacet
  facet normal -0 0 -1
    outer loop
      vertex 16.4308 13 0
      vertex 12.3004 2.47456 0
      vertex 15.6185 14.4654 0
    endloop
  endfacet
  facet normal 0 0 -1
    outer loop
      vertex 12.125 2.38156 0
      vertex 15.6185 14.4654 0
      vertex 12.3004 2.47456 0
    endloop
  endfacet
  facet normal 0 0 -1
    outer loop
      vertex 11.9567 2.27614 0
      vertex 15.6185 14.4654 0
      vertex 12.125 2.38156 0
    endloop
  endfacet
  facet normal -0 0 -1
    outer loop
      vertex 15.6185 14.4654 0
      vertex 11.9567 2.27614 0
      vertex 14.8579 15.9582 0
    endloop
  endfacet
  facet normal 0 0 -1
    outer loop
      vertex 11.7965 2.15884 0
      vertex 14.8579 15.9582 0
      vertex 11.9567 2.27614 0
    endloop
  endfacet
  facet normal 0 0 -1
    outer loop
      vertex 11.6452 2.0303 0
      vertex 14.8579 15.9582 0
      vertex 11.7965 2.15884 0
    endloop
  endfacet
  facet normal -0 0 -1
    outer loop
      vertex 14.8579 15.9582 0
      vertex 11.6452 2.0303 0
      vertex 14.1498 17.4766 0
    endloop
  endfacet
  facet normal 0 0 -1
    outer loop
      vertex 11.5035 1.89116 0
      vertex 14.1498 17.4766 0
      vertex 11.6452 2.0303 0
    endloop
  endfacet
  facet normal 0 0 -1
    outer loop
      vertex -14.1498 17.4766 0
      vertex 14.1498 17.4766 0
      vertex 11.5035 1.89116 0
    endloop
  endfacet
  facet normal 0 0 -1
    outer loop
      vertex 14.1498 17.4766 0
      vertex -14.1498 17.4766 0
      vertex 13.4952 19.0189 0
    endloop
  endfacet
  facet normal 0 -0 -1
    outer loop
      vertex -13.4952 19.0189 0
      vertex 13.4952 19.0189 0
      vertex -14.1498 17.4766 0
    endloop
  endfacet
  facet normal 0 -0 -1
    outer loop
      vertex -12.8947 20.583 0
      vertex 12.8947 20.583 0
      vertex -13.4952 19.0189 0
    endloop
  endfacet
  facet normal 0 0 -1
    outer loop
      vertex 12.8947 20.583 0
      vertex -12.8947 20.583 0
      vertex 12.3493 22.1672 0
    endloop
  endfacet
  facet normal 0 0 -1
    outer loop
      vertex -14.1498 17.4766 0
      vertex 11.5035 1.89116 0
      vertex 11.3723 1.74217 0
    endloop
  endfacet
  facet normal 0 0 -1
    outer loop
      vertex -11.3107 1.66422 0
      vertex 11.3723 1.74217 0
      vertex 11.2521 1.58411 0
    endloop
  endfacet
  facet normal 0 0 -1
    outer loop
      vertex -11.1964 1.50191 0
      vertex 11.2521 1.58411 0
      vertex 11.1436 1.41777 0
    endloop
  endfacet
  facet normal 0 0 -1
    outer loop
      vertex -11.094 1.33177 0
      vertex 11.1436 1.41777 0
      vertex 11.0475 1.24403 0
    endloop
  endfacet
  facet normal 0 0 -1
    outer loop
      vertex -11.0042 1.15469 0
      vertex 11.0475 1.24403 0
      vertex 10.9641 1.06383 0
    endloop
  endfacet
  facet normal 0 0 -1
    outer loop
      vertex -10.9274 0.971588 0
      vertex 10.9641 1.06383 0
      vertex 10.894 0.878067 0
    endloop
  endfacet
  facet normal 0 0 -1
    outer loop
      vertex -10.8639 0.783417 0
      vertex 10.894 0.878067 0
      vertex 10.8374 0.687729 0
    endloop
  endfacet
  facet normal 0 0 -1
    outer loop
      vertex -10.8143 0.591156 0
      vertex 10.8374 0.687729 0
      vertex 10.7947 0.49382 0
    endloop
  endfacet
  facet normal 0 0 -1
    outer loop
      vertex -10.7786 0.395828 0
      vertex 10.7947 0.49382 0
      vertex 10.7661 0.297318 0
    endloop
  endfacet
  facet normal 0 0 -1
    outer loop
      vertex -10.7572 0.198425 0
      vertex 10.7661 0.297318 0
      vertex 10.7518 0.0992737 0
    endloop
  endfacet
  facet normal 0 0 -1
    outer loop
      vertex -10.7572 0.198425 0
      vertex 10.7518 0.0992737 0
      vertex -10.75 0 0
    endloop
  endfacet
  facet normal -0 0 -1
    outer loop
      vertex 10.7661 0.297318 0
      vertex -10.7572 0.198425 0
      vertex -10.7786 0.395828 0
    endloop
  endfacet
  facet normal -0 0 -1
    outer loop
      vertex 10.7947 0.49382 0
      vertex -10.7786 0.395828 0
      vertex -10.8143 0.591156 0
    endloop
  endfacet
  facet normal -0 0 -1
    outer loop
      vertex 10.8374 0.687729 0
      vertex -10.8143 0.591156 0
      vertex -10.8639 0.783417 0
    endloop
  endfacet
  facet normal -0 0 -1
    outer loop
      vertex 10.894 0.878067 0
      vertex -10.8639 0.783417 0
      vertex -10.9274 0.971588 0
    endloop
  endfacet
  facet normal -0 0 -1
    outer loop
      vertex 10.9641 1.06383 0
      vertex -10.9274 0.971588 0
      vertex -11.0042 1.15469 0
    endloop
  endfacet
  facet normal -0 0 -1
    outer loop
      vertex 11.0475 1.24403 0
      vertex -11.0042 1.15469 0
      vertex -11.094 1.33177 0
    endloop
  endfacet
  facet normal -0 0 -1
    outer loop
      vertex 11.1436 1.41777 0
      vertex -11.094 1.33177 0
      vertex -11.1964 1.50191 0
    endloop
  endfacet
  facet normal -0 0 -1
    outer loop
      vertex 11.2521 1.58411 0
      vertex -11.1964 1.50191 0
      vertex -11.3107 1.66422 0
    endloop
  endfacet
  facet normal -0 0 -1
    outer loop
      vertex 11.3723 1.74217 0
      vertex -11.3107 1.66422 0
      vertex -11.4365 1.81786 0
    endloop
  endfacet
  facet normal 0 0 -1
    outer loop
      vertex 11.3723 1.74217 0
      vertex -11.4365 1.81786 0
      vertex -14.1498 17.4766 0
    endloop
  endfacet
  facet normal 0 0 -1
    outer loop
      vertex -14.1498 17.4766 0
      vertex -11.4365 1.81786 0
      vertex -11.5731 1.96201 0
    endloop
  endfacet
  facet normal 0 0 -1
    outer loop
      vertex -14.1498 17.4766 0
      vertex -11.5731 1.96201 0
      vertex -11.7197 2.09593 0
    endloop
  endfacet
  facet normal 0 -0 -1
    outer loop
      vertex -12.3493 22.1672 0
      vertex 12.3493 22.1672 0
      vertex -12.8947 20.583 0
    endloop
  endfacet
  facet normal -0 0 -1
    outer loop
      vertex 11.7976 24 0
      vertex -11.8594 23.7694 0
      vertex -11.7976 24 0
    endloop
  endfacet
  facet normal 0 0 -1
    outer loop
      vertex -14.8579 15.9582 0
      vertex -11.7197 2.09593 0
      vertex -11.8756 2.21893 0
    endloop
  endfacet
  facet normal 0 0 -1
    outer loop
      vertex -14.8579 15.9582 0
      vertex -11.8756 2.21893 0
      vertex -12.0399 2.33037 0
    endloop
  endfacet
  facet normal 0 0 -1
    outer loop
      vertex -15.6185 14.4654 0
      vertex -12.0399 2.33037 0
      vertex -12.2119 2.42966 0
    endloop
  endfacet
  facet normal 0 0 -1
    outer loop
      vertex 11.8594 23.7694 0
      vertex -11.8594 23.7694 0
      vertex 11.7976 24 0
    endloop
  endfacet
  facet normal 0 0 -1
    outer loop
      vertex -15.6185 14.4654 0
      vertex -12.2119 2.42966 0
      vertex -12.3905 2.51627 0
    endloop
  endfacet
  facet normal 0 0 -1
    outer loop
      vertex -16.4308 13 0
      vertex -12.3905 2.51627 0
      vertex -12.575 2.58977 0
    endloop
  endfacet
  facet normal 0 0 -1
    outer loop
      vertex -16.4308 13 0
      vertex -12.575 2.58977 0
      vertex -12.7643 2.64975 0
    endloop
  endfacet
  facet normal 0 -0 -1
    outer loop
      vertex -11.8594 23.7694 0
      vertex 11.8594 23.7694 0
      vertex -12.3493 22.1672 0
    endloop
  endfacet
  facet normal 0 0 -1
    outer loop
      vertex -17 12.0526 0
      vertex -12.7643 2.64975 0
      vertex -12.9574 2.69594 0
    endloop
  endfacet
  facet normal 0 0 -1
    outer loop
      vertex -17 12.0526 0
      vertex -12.9574 2.69594 0
      vertex -13.1534 2.72806 0
    endloop
  endfacet
  facet normal 0 0 -1
    outer loop
      vertex -17 12.0526 0
      vertex -13.1534 2.72806 0
      vertex -13.3511 2.74596 0
    endloop
  endfacet
  facet normal 0 0 -1
    outer loop
      vertex 12.3493 22.1672 0
      vertex -12.3493 22.1672 0
      vertex 11.8594 23.7694 0
    endloop
  endfacet
  facet normal 0 0 -1
    outer loop
      vertex -17 12.0526 0
      vertex -13.3511 2.74596 0
      vertex -13.5496 2.74954 0
    endloop
  endfacet
  facet normal 0 0 -1
    outer loop
      vertex -17 12.0526 0
      vertex -13.5496 2.74954 0
      vertex -13.7479 2.7388 0
    endloop
  endfacet
  facet normal 0 0 -1
    outer loop
      vertex -17 12.0526 0
      vertex -13.7479 2.7388 0
      vertex -13.9449 2.71376 0
    endloop
  endfacet
  facet normal 0 0 -1
    outer loop
      vertex -17 12.0526 0
      vertex -13.9449 2.71376 0
      vertex -14.1396 2.67459 0
    endloop
  endfacet
  facet normal 0 0 -1
    outer loop
      vertex 13.4952 19.0189 0
      vertex -13.4952 19.0189 0
      vertex 12.8947 20.583 0
    endloop
  endfacet
  facet normal 0 0 -1
    outer loop
      vertex -17 12.0526 0
      vertex -14.1396 2.67459 0
      vertex -14.3309 2.62146 0
    endloop
  endfacet
  facet normal 0 0 -1
    outer loop
      vertex -17 12.0526 0
      vertex -14.3309 2.62146 0
      vertex -14.5179 2.55467 0
    endloop
  endfacet
  facet normal 0 0 -1
    outer loop
      vertex -17 12.0526 0
      vertex -14.5179 2.55467 0
      vertex -14.6996 2.47456 0
    endloop
  endfacet
  facet normal 0 0 -1
    outer loop
      vertex -11.7197 2.09593 0
      vertex -14.8579 15.9582 0
      vertex -14.1498 17.4766 0
    endloop
  endfacet
  facet normal 0 0 -1
    outer loop
      vertex -17 2 0
      vertex -14.6996 2.47456 0
      vertex -14.875 2.38156 0
    endloop
  endfacet
  facet normal 0 0 -1
    outer loop
      vertex -17 2 0
      vertex -14.875 2.38156 0
      vertex -15.0433 2.27614 0
    endloop
  endfacet
  facet normal 0 0 -1
    outer loop
      vertex -17 2 0
      vertex -15.0433 2.27614 0
      vertex -15.2035 2.15884 0
    endloop
  endfacet
  facet normal 0 0 -1
    outer loop
      vertex -17 2 0
      vertex -15.2035 2.15884 0
      vertex -15.3548 2.0303 0
    endloop
  endfacet
  facet normal 0 0 -1
    outer loop
      vertex -17 2 0
      vertex -15.3548 2.0303 0
      vertex -15.3857 2 0
    endloop
  endfacet
  facet normal 0 0 -1
    outer loop
      vertex -12.0399 2.33037 0
      vertex -15.6185 14.4654 0
      vertex -14.8579 15.9582 0
    endloop
  endfacet
  facet normal 0 0 -1
    outer loop
      vertex -12.3905 2.51627 0
      vertex -16.4308 13 0
      vertex -15.6185 14.4654 0
    endloop
  endfacet
  facet normal -0 0 -1
    outer loop
      vertex -14.6996 2.47456 0
      vertex -17 2 0
      vertex -17 12.0526 0
    endloop
  endfacet
  facet normal 0 0 -1
    outer loop
      vertex -12.7643 2.64975 0
      vertex -17 12.0526 0
      vertex -16.4308 13 0
    endloop
  endfacet
  facet normal 0 0 1
    outer loop
      vertex 12.8604 2.67459 8
      vertex 17 12.0526 8
      vertex 16.4308 13 8
    endloop
  endfacet
  facet normal 0 0 1
    outer loop
      vertex 10.5 16.4461 8
      vertex 16.4308 13 8
      vertex 15.6185 14.4654 8
    endloop
  endfacet
  facet normal 0 0 1
    outer loop
      vertex 17 12.0526 8
      vertex 14.6094 2.51627 8
      vertex 17 2 8
    endloop
  endfacet
  facet normal 0 0 1
    outer loop
      vertex 17 2 8
      vertex 15.2803 2.09593 8
      vertex 15.3853 2 8
    endloop
  endfacet
  facet normal 0 0 1
    outer loop
      vertex 17 2 8
      vertex 15.1244 2.21893 8
      vertex 15.2803 2.09593 8
    endloop
  endfacet
  facet normal 0 0 1
    outer loop
      vertex 17 2 8
      vertex 14.9601 2.33037 8
      vertex 15.1244 2.21893 8
    endloop
  endfacet
  facet normal 0 0 1
    outer loop
      vertex 10.5 16.4461 8
      vertex 15.6185 14.4654 8
      vertex 14.8579 15.9582 8
    endloop
  endfacet
  facet normal 0 0 1
    outer loop
      vertex 17 2 8
      vertex 14.7881 2.42966 8
      vertex 14.9601 2.33037 8
    endloop
  endfacet
  facet normal 0 0 1
    outer loop
      vertex 17 2 8
      vertex 14.6094 2.51627 8
      vertex 14.7881 2.42966 8
    endloop
  endfacet
  facet normal 0 0 1
    outer loop
      vertex 17 12.0526 8
      vertex 14.425 2.58977 8
      vertex 14.6094 2.51627 8
    endloop
  endfacet
  facet normal 0 0 1
    outer loop
      vertex 17 12.0526 8
      vertex 14.2357 2.64975 8
      vertex 14.425 2.58977 8
    endloop
  endfacet
  facet normal -0 0 1
    outer loop
      vertex 10.5 16.4461 8
      vertex 14.8579 15.9582 8
      vertex 14.1498 17.4766 8
    endloop
  endfacet
  facet normal 0 0 1
    outer loop
      vertex 17 12.0526 8
      vertex 14.0426 2.69594 8
      vertex 14.2357 2.64975 8
    endloop
  endfacet
  facet normal 0 0 1
    outer loop
      vertex 17 12.0526 8
      vertex 13.8466 2.72806 8
      vertex 14.0426 2.69594 8
    endloop
  endfacet
  facet normal 0 0 1
    outer loop
      vertex 17 12.0526 8
      vertex 13.6489 2.74596 8
      vertex 13.8466 2.72806 8
    endloop
  endfacet
  facet normal 0 0 1
    outer loop
      vertex 10.5 16.4461 8
      vertex 14.1498 17.4766 8
      vertex 13.4952 19.0189 8
    endloop
  endfacet
  facet normal 0 0 1
    outer loop
      vertex 16.4308 13 8
      vertex 10.5 16.4461 8
      vertex 12.6691 2.62146 8
    endloop
  endfacet
  facet normal 0 0 1
    outer loop
      vertex 17 12.0526 8
      vertex 13.4503 2.74954 8
      vertex 13.6489 2.74596 8
    endloop
  endfacet
  facet normal 0 0 1
    outer loop
      vertex 17 12.0526 8
      vertex 13.2521 2.7388 8
      vertex 13.4503 2.74954 8
    endloop
  endfacet
  facet normal 0 0 1
    outer loop
      vertex 10.5 16.4461 8
      vertex 13.4952 19.0189 8
      vertex 12.8947 20.583 8
    endloop
  endfacet
  facet normal 0 0 1
    outer loop
      vertex 17 12.0526 8
      vertex 13.0551 2.71376 8
      vertex 13.2521 2.7388 8
    endloop
  endfacet
  facet normal 0 0 1
    outer loop
      vertex 17 12.0526 8
      vertex 12.8604 2.67459 8
      vertex 13.0551 2.71376 8
    endloop
  endfacet
  facet normal 0 0 1
    outer loop
      vertex 16.4308 13 8
      vertex 12.6691 2.62146 8
      vertex 12.8604 2.67459 8
    endloop
  endfacet
  facet normal 0 0 1
    outer loop
      vertex 9.70619 16.4461 8
      vertex 12.8947 20.583 8
      vertex 12.3493 22.1672 8
    endloop
  endfacet
  facet normal 0 0 1
    outer loop
      vertex 12.6691 2.62146 8
      vertex 10.5 16.4461 8
      vertex 12.4821 2.55467 8
    endloop
  endfacet
  facet normal 0 0 1
    outer loop
      vertex 10.5 2.10218 8
      vertex 12.4821 2.55467 8
      vertex 10.5 16.4461 8
    endloop
  endfacet
  facet normal 0 0 1
    outer loop
      vertex 12.4821 2.55467 8
      vertex 10.5 2.10218 8
      vertex 12.3004 2.47456 8
    endloop
  endfacet
  facet normal 0 0 1
    outer loop
      vertex 5 24 8
      vertex 12.3493 22.1672 8
      vertex 11.8594 23.7694 8
    endloop
  endfacet
  facet normal -0 0 1
    outer loop
      vertex 5 24 8
      vertex 11.8594 23.7694 8
      vertex 11.7976 24 8
    endloop
  endfacet
  facet normal 0 0 1
    outer loop
      vertex 12.3004 2.47456 8
      vertex 10.5 2.10218 8
      vertex 12.125 2.38156 8
    endloop
  endfacet
  facet normal 0 0 1
    outer loop
      vertex 12.125 2.38156 8
      vertex 10.5 2.10218 8
      vertex 11.9567 2.27614 8
    endloop
  endfacet
  facet normal 0 0 1
    outer loop
      vertex 11.9567 2.27614 8
      vertex 10.5 2.10218 8
      vertex 11.7965 2.15884 8
    endloop
  endfacet
  facet normal 0 0 1
    outer loop
      vertex 11.7965 2.15884 8
      vertex 10.5 2.10218 8
      vertex 11.6452 2.0303 8
    endloop
  endfacet
  facet normal 0 0 1
    outer loop
      vertex 11.6452 2.0303 8
      vertex 10.5 2.10218 8
      vertex 11.5035 1.89116 8
    endloop
  endfacet
  facet normal 0 0 1
    outer loop
      vertex 11.5035 1.89116 8
      vertex 10.5 2.10218 8
      vertex 11.3723 1.74217 8
    endloop
  endfacet
  facet normal 0 0 1
    outer loop
      vertex 11.3723 1.74217 8
      vertex 10.5 2.10218 8
      vertex 11.2521 1.58411 8
    endloop
  endfacet
  facet normal 0 0 1
    outer loop
      vertex 11.2521 1.58411 8
      vertex 10.5 2.10218 8
      vertex 11.1436 1.41777 8
    endloop
  endfacet
  facet normal 0 0 1
    outer loop
      vertex 11.1436 1.41777 8
      vertex 10.5 2.10218 8
      vertex 11.0475 1.24403 8
    endloop
  endfacet
  facet normal -0 0 1
    outer loop
      vertex 10.4714 2.10218 8
      vertex 11.0475 1.24403 8
      vertex 10.5 2.10218 8
    endloop
  endfacet
  facet normal 0 0 1
    outer loop
      vertex 11.0475 1.24403 8
      vertex 10.4714 2.10218 8
      vertex 10.9641 1.06383 8
    endloop
  endfacet
  facet normal -0 0 1
    outer loop
      vertex 9.99633 2.10218 8
      vertex 10.9641 1.06383 8
      vertex 10.4714 2.10218 8
    endloop
  endfacet
  facet normal 0 0 1
    outer loop
      vertex 10.9641 1.06383 8
      vertex 9.99633 2.10218 8
      vertex 10.894 0.878067 8
    endloop
  endfacet
  facet normal 0 0 1
    outer loop
      vertex 10.894 0.878067 8
      vertex 9.84014 2.10218 8
      vertex 10.8374 0.687729 8
    endloop
  endfacet
  facet normal -0 0 1
    outer loop
      vertex 9.84014 2.10218 8
      vertex 10.894 0.878067 8
      vertex 9.99633 2.10218 8
    endloop
  endfacet
  facet normal 0 0 1
    outer loop
      vertex 12.8947 20.583 8
      vertex 10.4563 16.4461 8
      vertex 10.5 16.4461 8
    endloop
  endfacet
  facet normal 0 0 1
    outer loop
      vertex 12.8947 20.583 8
      vertex 10.0427 16.4461 8
      vertex 10.4563 16.4461 8
    endloop
  endfacet
  facet normal 0 0 1
    outer loop
      vertex 12.8947 20.583 8
      vertex 9.70619 16.4461 8
      vertex 10.0427 16.4461 8
    endloop
  endfacet
  facet normal 0 0 1
    outer loop
      vertex 12.3493 22.1672 8
      vertex 5 24 8
      vertex 9.70619 16.4461 8
    endloop
  endfacet
  facet normal 0 0 1
    outer loop
      vertex 9.70619 16.4461 8
      vertex 5 24 8
      vertex 5 16.4461 8
    endloop
  endfacet
  facet normal 0 0 1
    outer loop
      vertex 10.8374 0.687729 8
      vertex 9.84014 2.10218 8
      vertex 10.7947 0.49382 8
    endloop
  endfacet
  facet normal 0 0 1
    outer loop
      vertex 10.7947 0.49382 8
      vertex 9.84014 2.10218 8
      vertex 10.7661 0.297318 8
    endloop
  endfacet
  facet normal -0 0 1
    outer loop
      vertex 7.68372 2.10218 8
      vertex 10.7661 0.297318 8
      vertex 9.84014 2.10218 8
    endloop
  endfacet
  facet normal 0 0 1
    outer loop
      vertex 10.7661 0.297318 8
      vertex 7.68372 2.10218 8
      vertex 10.7518 0.0992737 8
    endloop
  endfacet
  facet normal 0 0 1
    outer loop
      vertex 10.7518 0.0992737 8
      vertex 7.68372 2.10218 8
      vertex 10.7518 0 8
    endloop
  endfacet
  facet normal 0 0 1
    outer loop
      vertex -10.75 0 8
      vertex 7.68372 2.10218 8
      vertex -9.82716 2.10218 8
    endloop
  endfacet
  facet normal 0 0 1
    outer loop
      vertex -10.9274 0.971588 8
      vertex -9.82716 2.10218 8
      vertex -10.497 2.10218 8
    endloop
  endfacet
  facet normal 0 0 1
    outer loop
      vertex -11.0042 1.15469 8
      vertex -10.497 2.10218 8
      vertex -10.5 2.10218 8
    endloop
  endfacet
  facet normal 0 0 1
    outer loop
      vertex 7.68372 2.10218 8
      vertex -10.75 0 8
      vertex 10.7518 0 8
    endloop
  endfacet
  facet normal 0 0 1
    outer loop
      vertex -5 24 8
      vertex -9.79076 16.4461 8
      vertex -5 16.4461 8
    endloop
  endfacet
  facet normal -0 0 1
    outer loop
      vertex -12.3493 22.1672 8
      vertex -9.79076 16.4461 8
      vertex -5 24 8
    endloop
  endfacet
  facet normal -0 0 1
    outer loop
      vertex -12.8947 20.583 8
      vertex -9.79076 16.4461 8
      vertex -12.3493 22.1672 8
    endloop
  endfacet
  facet normal 0 0 1
    outer loop
      vertex -9.79076 16.4461 8
      vertex -12.8947 20.583 8
      vertex -10.1814 16.4461 8
    endloop
  endfacet
  facet normal 0 0 1
    outer loop
      vertex -10.1814 16.4461 8
      vertex -12.8947 20.583 8
      vertex -10.3956 16.4461 8
    endloop
  endfacet
  facet normal 0 0 1
    outer loop
      vertex -10.3956 16.4461 8
      vertex -12.8947 20.583 8
      vertex -10.4641 16.4461 8
    endloop
  endfacet
  facet normal -0 0 1
    outer loop
      vertex -12.575 2.58977 8
      vertex -10.5 2.10218 8
      vertex -10.5 16.4461 8
    endloop
  endfacet
  facet normal 0 0 1
    outer loop
      vertex -9.82716 2.10218 8
      vertex -10.7572 0.198425 8
      vertex -10.75 0 8
    endloop
  endfacet
  facet normal 0 0 1
    outer loop
      vertex -9.82716 2.10218 8
      vertex -10.7786 0.395828 8
      vertex -10.7572 0.198425 8
    endloop
  endfacet
  facet normal 0 0 1
    outer loop
      vertex -9.82716 2.10218 8
      vertex -10.8143 0.591156 8
      vertex -10.7786 0.395828 8
    endloop
  endfacet
  facet normal 0 0 1
    outer loop
      vertex -9.82716 2.10218 8
      vertex -10.8639 0.783417 8
      vertex -10.8143 0.591156 8
    endloop
  endfacet
  facet normal 0 0 1
    outer loop
      vertex -9.82716 2.10218 8
      vertex -10.9274 0.971588 8
      vertex -10.8639 0.783417 8
    endloop
  endfacet
  facet normal 0 0 1
    outer loop
      vertex -10.497 2.10218 8
      vertex -11.0042 1.15469 8
      vertex -10.9274 0.971588 8
    endloop
  endfacet
  facet normal 0 0 1
    outer loop
      vertex -10.5 2.10218 8
      vertex -11.094 1.33177 8
      vertex -11.0042 1.15469 8
    endloop
  endfacet
  facet normal 0 0 1
    outer loop
      vertex -10.5 2.10218 8
      vertex -11.1964 1.50191 8
      vertex -11.094 1.33177 8
    endloop
  endfacet
  facet normal 0 0 1
    outer loop
      vertex -10.5 2.10218 8
      vertex -11.3107 1.66422 8
      vertex -11.1964 1.50191 8
    endloop
  endfacet
  facet normal 0 0 1
    outer loop
      vertex -10.5 2.10218 8
      vertex -11.4365 1.81786 8
      vertex -11.3107 1.66422 8
    endloop
  endfacet
  facet normal 0 0 1
    outer loop
      vertex -10.5 2.10218 8
      vertex -11.5731 1.96201 8
      vertex -11.4365 1.81786 8
    endloop
  endfacet
  facet normal 0 0 1
    outer loop
      vertex -10.5 2.10218 8
      vertex -11.7197 2.09593 8
      vertex -11.5731 1.96201 8
    endloop
  endfacet
  facet normal 0 0 1
    outer loop
      vertex -11.8594 23.7694 8
      vertex -5 24 8
      vertex -11.7976 24 8
    endloop
  endfacet
  facet normal 0 0 1
    outer loop
      vertex -12.3493 22.1672 8
      vertex -5 24 8
      vertex -11.8594 23.7694 8
    endloop
  endfacet
  facet normal 0 0 1
    outer loop
      vertex -10.4641 16.4461 8
      vertex -12.8947 20.583 8
      vertex -10.4882 16.4461 8
    endloop
  endfacet
  facet normal 0 0 1
    outer loop
      vertex -10.4882 16.4461 8
      vertex -12.8947 20.583 8
      vertex -10.5 16.4461 8
    endloop
  endfacet
  facet normal -0 0 1
    outer loop
      vertex -13.4952 19.0189 8
      vertex -10.5 16.4461 8
      vertex -12.8947 20.583 8
    endloop
  endfacet
  facet normal -0 0 1
    outer loop
      vertex -14.1498 17.4766 8
      vertex -10.5 16.4461 8
      vertex -13.4952 19.0189 8
    endloop
  endfacet
  facet normal 0 0 1
    outer loop
      vertex -14.8579 15.9582 8
      vertex -10.5 16.4461 8
      vertex -14.1498 17.4766 8
    endloop
  endfacet
  facet normal 0 0 1
    outer loop
      vertex -15.6185 14.4654 8
      vertex -10.5 16.4461 8
      vertex -14.8579 15.9582 8
    endloop
  endfacet
  facet normal 0 0 1
    outer loop
      vertex -10.5 2.10218 8
      vertex -11.8756 2.21893 8
      vertex -11.7197 2.09593 8
    endloop
  endfacet
  facet normal 0 0 1
    outer loop
      vertex -10.5 2.10218 8
      vertex -12.0399 2.33037 8
      vertex -11.8756 2.21893 8
    endloop
  endfacet
  facet normal 0 0 1
    outer loop
      vertex -16.4308 13 8
      vertex -10.5 16.4461 8
      vertex -15.6185 14.4654 8
    endloop
  endfacet
  facet normal 0 0 1
    outer loop
      vertex -10.5 2.10218 8
      vertex -12.2119 2.42966 8
      vertex -12.0399 2.33037 8
    endloop
  endfacet
  facet normal 0 0 1
    outer loop
      vertex -10.5 2.10218 8
      vertex -12.3905 2.51627 8
      vertex -12.2119 2.42966 8
    endloop
  endfacet
  facet normal 0 -0 1
    outer loop
      vertex -12.575 2.58977 8
      vertex -10.5 16.4461 8
      vertex -16.4308 13 8
    endloop
  endfacet
  facet normal 0 0 1
    outer loop
      vertex -10.5 2.10218 8
      vertex -12.575 2.58977 8
      vertex -12.3905 2.51627 8
    endloop
  endfacet
  facet normal 0 0 1
    outer loop
      vertex -12.575 2.58977 8
      vertex -16.4308 13 8
      vertex -12.7643 2.64975 8
    endloop
  endfacet
  facet normal -0 0 1
    outer loop
      vertex -17 12.0526 8
      vertex -12.7643 2.64975 8
      vertex -16.4308 13 8
    endloop
  endfacet
  facet normal 0 0 1
    outer loop
      vertex -12.7643 2.64975 8
      vertex -17 12.0526 8
      vertex -12.9574 2.69594 8
    endloop
  endfacet
  facet normal 0 0 1
    outer loop
      vertex -12.9574 2.69594 8
      vertex -17 12.0526 8
      vertex -13.1534 2.72806 8
    endloop
  endfacet
  facet normal 0 0 1
    outer loop
      vertex -13.1534 2.72806 8
      vertex -17 12.0526 8
      vertex -13.3511 2.74596 8
    endloop
  endfacet
  facet normal 0 0 1
    outer loop
      vertex -13.3511 2.74596 8
      vertex -17 12.0526 8
      vertex -13.5496 2.74954 8
    endloop
  endfacet
  facet normal 0 0 1
    outer loop
      vertex -13.5496 2.74954 8
      vertex -17 12.0526 8
      vertex -13.7479 2.7388 8
    endloop
  endfacet
  facet normal 0 0 1
    outer loop
      vertex -13.7479 2.7388 8
      vertex -17 12.0526 8
      vertex -13.9449 2.71376 8
    endloop
  endfacet
  facet normal 0 0 1
    outer loop
      vertex -13.9449 2.71376 8
      vertex -17 12.0526 8
      vertex -14.1396 2.67459 8
    endloop
  endfacet
  facet normal 0 0 1
    outer loop
      vertex -14.1396 2.67459 8
      vertex -17 12.0526 8
      vertex -14.3309 2.62146 8
    endloop
  endfacet
  facet normal 0 0 1
    outer loop
      vertex -14.3309 2.62146 8
      vertex -17 12.0526 8
      vertex -14.5179 2.55467 8
    endloop
  endfacet
  facet normal 0 0 1
    outer loop
      vertex -14.5179 2.55467 8
      vertex -17 12.0526 8
      vertex -14.6996 2.47456 8
    endloop
  endfacet
  facet normal 0 0 1
    outer loop
      vertex -17 2 8
      vertex -14.6996 2.47456 8
      vertex -17 12.0526 8
    endloop
  endfacet
  facet normal 0 0 1
    outer loop
      vertex -14.6996 2.47456 8
      vertex -17 2 8
      vertex -14.875 2.38156 8
    endloop
  endfacet
  facet normal 0 0 1
    outer loop
      vertex -14.875 2.38156 8
      vertex -17 2 8
      vertex -15.0433 2.27614 8
    endloop
  endfacet
  facet normal 0 0 1
    outer loop
      vertex -15.0433 2.27614 8
      vertex -17 2 8
      vertex -15.2035 2.15884 8
    endloop
  endfacet
  facet normal 0 0 1
    outer loop
      vertex -15.2035 2.15884 8
      vertex -17 2 8
      vertex -15.3548 2.0303 8
    endloop
  endfacet
  facet normal 0 0 1
    outer loop
      vertex -15.3548 2.0303 8
      vertex -17 2 8
      vertex -15.3857 2 8
    endloop
  endfacet
  facet normal 0.997403 -0.0720186 0
    outer loop
      vertex 10.7518 0.0992737 8
      vertex 10.7661 0.297318 0
      vertex 10.7661 0.297318 8
    endloop
  endfacet
  facet normal 0.997403 -0.0720186 0
    outer loop
      vertex 10.7661 0.297318 0
      vertex 10.7518 0.0992737 8
      vertex 10.7518 0.0992737 0
    endloop
  endfacet
  facet normal 0.989574 -0.144028 0
    outer loop
      vertex 10.7661 0.297318 8
      vertex 10.7947 0.49382 0
      vertex 10.7947 0.49382 8
    endloop
  endfacet
  facet normal 0.989574 -0.144028 0
    outer loop
      vertex 10.7947 0.49382 0
      vertex 10.7661 0.297318 8
      vertex 10.7661 0.297318 0
    endloop
  endfacet
  facet normal 0.976602 -0.215054 0
    outer loop
      vertex 10.7947 0.49382 8
      vertex 10.8374 0.687729 0
      vertex 10.8374 0.687729 8
    endloop
  endfacet
  facet normal 0.976602 -0.215054 0
    outer loop
      vertex 10.8374 0.687729 0
      vertex 10.7947 0.49382 8
      vertex 10.7947 0.49382 0
    endloop
  endfacet
  facet normal 0.958518 -0.285031 0
    outer loop
      vertex 10.8374 0.687729 8
      vertex 10.894 0.878067 0
      vertex 10.894 0.878067 8
    endloop
  endfacet
  facet normal 0.958518 -0.285031 0
    outer loop
      vertex 10.894 0.878067 0
      vertex 10.8374 0.687729 8
      vertex 10.8374 0.687729 0
    endloop
  endfacet
  facet normal 0.9356 -0.353061 0
    outer loop
      vertex 10.894 0.878067 8
      vertex 10.9641 1.06383 0
      vertex 10.9641 1.06383 8
    endloop
  endfacet
  facet normal 0.9356 -0.353061 0
    outer loop
      vertex 10.9641 1.06383 0
      vertex 10.894 0.878067 8
      vertex 10.894 0.878067 0
    endloop
  endfacet
  facet normal 0.907517 -0.420016 0
    outer loop
      vertex 10.9641 1.06383 8
      vertex 11.0475 1.24403 0
      vertex 11.0475 1.24403 8
    endloop
  endfacet
  facet normal 0.907517 -0.420016 0
    outer loop
      vertex 11.0475 1.24403 0
      vertex 10.9641 1.06383 8
      vertex 10.9641 1.06383 0
    endloop
  endfacet
  facet normal 0.875059 -0.484017 0
    outer loop
      vertex 11.0475 1.24403 8
      vertex 11.1436 1.41777 0
      vertex 11.1436 1.41777 8
    endloop
  endfacet
  facet normal 0.875059 -0.484017 0
    outer loop
      vertex 11.1436 1.41777 0
      vertex 11.0475 1.24403 8
      vertex 11.0475 1.24403 0
    endloop
  endfacet
  facet normal 0.837571 -0.546329 0
    outer loop
      vertex 11.1436 1.41777 8
      vertex 11.2521 1.58411 0
      vertex 11.2521 1.58411 8
    endloop
  endfacet
  facet normal 0.837571 -0.546329 0
    outer loop
      vertex 11.2521 1.58411 0
      vertex 11.1436 1.41777 8
      vertex 11.1436 1.41777 0
    endloop
  endfacet
  facet normal 0.795982 -0.605321 0
    outer loop
      vertex 11.2521 1.58411 8
      vertex 11.3723 1.74217 0
      vertex 11.3723 1.74217 8
    endloop
  endfacet
  facet normal 0.795982 -0.605321 0
    outer loop
      vertex 11.3723 1.74217 0
      vertex 11.2521 1.58411 8
      vertex 11.2521 1.58411 0
    endloop
  endfacet
  facet normal 0.750492 -0.66088 0
    outer loop
      vertex 11.3723 1.74217 8
      vertex 11.5035 1.89116 0
      vertex 11.5035 1.89116 8
    endloop
  endfacet
  facet normal 0.750492 -0.66088 0
    outer loop
      vertex 11.5035 1.89116 0
      vertex 11.3723 1.74217 8
      vertex 11.3723 1.74217 0
    endloop
  endfacet
  facet normal 0.700632 -0.713523 0
    outer loop
      vertex 11.5035 1.89116 0
      vertex 11.6452 2.0303 8
      vertex 11.5035 1.89116 8
    endloop
  endfacet
  facet normal 0.700632 -0.713523 0
    outer loop
      vertex 11.6452 2.0303 8
      vertex 11.5035 1.89116 0
      vertex 11.6452 2.0303 0
    endloop
  endfacet
  facet normal 0.647458 -0.762101 0
    outer loop
      vertex 11.6452 2.0303 0
      vertex 11.7965 2.15884 8
      vertex 11.6452 2.0303 8
    endloop
  endfacet
  facet normal 0.647458 -0.762101 0
    outer loop
      vertex 11.7965 2.15884 8
      vertex 11.6452 2.0303 0
      vertex 11.7965 2.15884 0
    endloop
  endfacet
  facet normal 0.590774 -0.806837 0
    outer loop
      vertex 11.7965 2.15884 0
      vertex 11.9567 2.27614 8
      vertex 11.7965 2.15884 8
    endloop
  endfacet
  facet normal 0.590774 -0.806837 0
    outer loop
      vertex 11.9567 2.27614 8
      vertex 11.7965 2.15884 0
      vertex 11.9567 2.27614 0
    endloop
  endfacet
  facet normal 0.530841 -0.847472 0
    outer loop
      vertex 11.9567 2.27614 0
      vertex 12.125 2.38156 8
      vertex 11.9567 2.27614 8
    endloop
  endfacet
  facet normal 0.530841 -0.847472 0
    outer loop
      vertex 12.125 2.38156 8
      vertex 11.9567 2.27614 0
      vertex 12.125 2.38156 0
    endloop
  endfacet
  facet normal 0.468443 -0.883494 0
    outer loop
      vertex 12.125 2.38156 0
      vertex 12.3004 2.47456 8
      vertex 12.125 2.38156 8
    endloop
  endfacet
  facet normal 0.468443 -0.883494 0
    outer loop
      vertex 12.3004 2.47456 8
      vertex 12.125 2.38156 0
      vertex 12.3004 2.47456 0
    endloop
  endfacet
  facet normal 0.403422 -0.915014 0
    outer loop
      vertex 12.3004 2.47456 0
      vertex 12.4821 2.55467 8
      vertex 12.3004 2.47456 8
    endloop
  endfacet
  facet normal 0.403422 -0.915014 0
    outer loop
      vertex 12.4821 2.55467 8
      vertex 12.3004 2.47456 0
      vertex 12.4821 2.55467 0
    endloop
  endfacet
  facet normal 0.336356 -0.941735 0
    outer loop
      vertex 12.4821 2.55467 0
      vertex 12.6691 2.62146 8
      vertex 12.4821 2.55467 8
    endloop
  endfacet
  facet normal 0.336356 -0.941735 0
    outer loop
      vertex 12.6691 2.62146 8
      vertex 12.4821 2.55467 0
      vertex 12.6691 2.62146 0
    endloop
  endfacet
  facet normal 0.267602 -0.963529 0
    outer loop
      vertex 12.6691 2.62146 0
      vertex 12.8604 2.67459 8
      vertex 12.6691 2.62146 8
    endloop
  endfacet
  facet normal 0.267602 -0.963529 0
    outer loop
      vertex 12.8604 2.67459 8
      vertex 12.6691 2.62146 0
      vertex 12.8604 2.67459 0
    endloop
  endfacet
  facet normal 0.19723 -0.980357 0
    outer loop
      vertex 12.8604 2.67459 0
      vertex 13.0551 2.71376 8
      vertex 12.8604 2.67459 8
    endloop
  endfacet
  facet normal 0.19723 -0.980357 0
    outer loop
      vertex 13.0551 2.71376 8
      vertex 12.8604 2.67459 0
      vertex 13.0551 2.71376 0
    endloop
  endfacet
  facet normal 0.126092 -0.992019 0
    outer loop
      vertex 13.0551 2.71376 0
      vertex 13.2521 2.7388 8
      vertex 13.0551 2.71376 8
    endloop
  endfacet
  facet normal 0.126092 -0.992019 0
    outer loop
      vertex 13.2521 2.7388 8
      vertex 13.0551 2.71376 0
      vertex 13.2521 2.7388 0
    endloop
  endfacet
  facet normal 0.0541083 -0.998535 0
    outer loop
      vertex 13.2521 2.7388 0
      vertex 13.4503 2.74954 8
      vertex 13.2521 2.7388 8
    endloop
  endfacet
  facet normal 0.0541083 -0.998535 0
    outer loop
      vertex 13.4503 2.74954 8
      vertex 13.2521 2.7388 0
      vertex 13.4503 2.74954 0
    endloop
  endfacet
  facet normal -0.0180233 -0.999838 0
    outer loop
      vertex 13.4503 2.74954 0
      vertex 13.6489 2.74596 8
      vertex 13.4503 2.74954 8
    endloop
  endfacet
  facet normal -0.0180233 -0.999838 -0
    outer loop
      vertex 13.6489 2.74596 8
      vertex 13.4503 2.74954 0
      vertex 13.6489 2.74596 0
    endloop
  endfacet
  facet normal -0.0901724 -0.995926 0
    outer loop
      vertex 13.6489 2.74596 0
      vertex 13.8466 2.72806 8
      vertex 13.6489 2.74596 8
    endloop
  endfacet
  facet normal -0.0901724 -0.995926 -0
    outer loop
      vertex 13.8466 2.72806 8
      vertex 13.6489 2.74596 0
      vertex 13.8466 2.72806 0
    endloop
  endfacet
  facet normal -0.16172 -0.986837 0
    outer loop
      vertex 13.8466 2.72806 0
      vertex 14.0426 2.69594 8
      vertex 13.8466 2.72806 8
    endloop
  endfacet
  facet normal -0.16172 -0.986837 -0
    outer loop
      vertex 14.0426 2.69594 8
      vertex 13.8466 2.72806 0
      vertex 14.0426 2.69594 0
    endloop
  endfacet
  facet normal -0.232639 -0.972563 0
    outer loop
      vertex 14.0426 2.69594 0
      vertex 14.2357 2.64975 8
      vertex 14.0426 2.69594 8
    endloop
  endfacet
  facet normal -0.232639 -0.972563 -0
    outer loop
      vertex 14.2357 2.64975 8
      vertex 14.0426 2.69594 0
      vertex 14.2357 2.64975 0
    endloop
  endfacet
  facet normal -0.302052 -0.953291 0
    outer loop
      vertex 14.2357 2.64975 0
      vertex 14.425 2.58977 8
      vertex 14.2357 2.64975 8
    endloop
  endfacet
  facet normal -0.302052 -0.953291 -0
    outer loop
      vertex 14.425 2.58977 8
      vertex 14.2357 2.64975 0
      vertex 14.425 2.58977 0
    endloop
  endfacet
  facet normal -0.370261 -0.928928 0
    outer loop
      vertex 14.425 2.58977 0
      vertex 14.6094 2.51627 8
      vertex 14.425 2.58977 8
    endloop
  endfacet
  facet normal -0.370261 -0.928928 -0
    outer loop
      vertex 14.6094 2.51627 8
      vertex 14.425 2.58977 0
      vertex 14.6094 2.51627 0
    endloop
  endfacet
  facet normal -0.436141 -0.899878 0
    outer loop
      vertex 14.6094 2.51627 0
      vertex 14.7881 2.42966 8
      vertex 14.6094 2.51627 8
    endloop
  endfacet
  facet normal -0.436141 -0.899878 -0
    outer loop
      vertex 14.7881 2.42966 8
      vertex 14.6094 2.51627 0
      vertex 14.7881 2.42966 0
    endloop
  endfacet
  facet normal -0.499946 -0.866056 0
    outer loop
      vertex 14.7881 2.42966 0
      vertex 14.9601 2.33037 8
      vertex 14.7881 2.42966 8
    endloop
  endfacet
  facet normal -0.499946 -0.866056 -0
    outer loop
      vertex 14.9601 2.33037 8
      vertex 14.7881 2.42966 0
      vertex 14.9601 2.33037 0
    endloop
  endfacet
  facet normal -0.561331 -0.827591 0
    outer loop
      vertex 14.9601 2.33037 0
      vertex 15.1244 2.21893 8
      vertex 14.9601 2.33037 8
    endloop
  endfacet
  facet normal -0.561331 -0.827591 -0
    outer loop
      vertex 15.1244 2.21893 8
      vertex 14.9601 2.33037 0
      vertex 15.1244 2.21893 0
    endloop
  endfacet
  facet normal -0.619399 -0.785076 0
    outer loop
      vertex 15.1244 2.21893 0
      vertex 15.2803 2.09593 8
      vertex 15.1244 2.21893 8
    endloop
  endfacet
  facet normal -0.619399 -0.785076 -0
    outer loop
      vertex 15.2803 2.09593 8
      vertex 15.1244 2.21893 0
      vertex 15.2803 2.09593 0
    endloop
  endfacet
  facet normal -0.674501 -0.738274 0
    outer loop
      vertex 15.2803 2.09593 0
      vertex 15.3853 2 8
      vertex 15.2803 2.09593 8
    endloop
  endfacet
  facet normal -0.674501 -0.738274 -0
    outer loop
      vertex 15.3853 2 8
      vertex 15.2803 2.09593 0
      vertex 15.3853 2 0
    endloop
  endfacet
  facet normal 0 -1 0
    outer loop
      vertex 15.3853 2 0
      vertex 17 2 8
      vertex 15.3853 2 8
    endloop
  endfacet
  facet normal 0 -1 -0
    outer loop
      vertex 17 2 8
      vertex 15.3853 2 0
      vertex 17 2 0
    endloop
  endfacet
  facet normal 1 -0 0
    outer loop
      vertex 17 2 8
      vertex 17 12.0526 0
      vertex 17 12.0526 8
    endloop
  endfacet
  facet normal 1 0 0
    outer loop
      vertex 17 12.0526 0
      vertex 17 2 8
      vertex 17 2 0
    endloop
  endfacet
  facet normal 0.857189 0.515001 0
    outer loop
      vertex 17 12.0526 8
      vertex 16.4308 13 0
      vertex 16.4308 13 8
    endloop
  endfacet
  facet normal 0.857189 0.515001 0
    outer loop
      vertex 16.4308 13 0
      vertex 17 12.0526 8
      vertex 17 12.0526 0
    endloop
  endfacet
  facet normal 0.874616 0.484817 0
    outer loop
      vertex 16.4308 13 8
      vertex 15.6185 14.4654 0
      vertex 15.6185 14.4654 8
    endloop
  endfacet
  facet normal 0.874616 0.484817 0
    outer loop
      vertex 15.6185 14.4654 0
      vertex 16.4308 13 8
      vertex 16.4308 13 0
    endloop
  endfacet
  facet normal 0.891011 0.453981 0
    outer loop
      vertex 15.6185 14.4654 8
      vertex 14.8579 15.9582 0
      vertex 14.8579 15.9582 8
    endloop
  endfacet
  facet normal 0.891011 0.453981 0
    outer loop
      vertex 14.8579 15.9582 0
      vertex 15.6185 14.4654 8
      vertex 15.6185 14.4654 0
    endloop
  endfacet
  facet normal 0.906294 0.422647 0
    outer loop
      vertex 14.8579 15.9582 8
      vertex 14.1498 17.4766 0
      vertex 14.1498 17.4766 8
    endloop
  endfacet
  facet normal 0.906294 0.422647 0
    outer loop
      vertex 14.1498 17.4766 0
      vertex 14.8579 15.9582 8
      vertex 14.8579 15.9582 0
    endloop
  endfacet
  facet normal 0.920519 0.390697 0
    outer loop
      vertex 14.1498 17.4766 8
      vertex 13.4952 19.0189 0
      vertex 13.4952 19.0189 8
    endloop
  endfacet
  facet normal 0.920519 0.390697 0
    outer loop
      vertex 13.4952 19.0189 0
      vertex 14.1498 17.4766 8
      vertex 14.1498 17.4766 0
    endloop
  endfacet
  facet normal 0.933561 0.358419 0
    outer loop
      vertex 13.4952 19.0189 8
      vertex 12.8947 20.583 0
      vertex 12.8947 20.583 8
    endloop
  endfacet
  facet normal 0.933561 0.358419 0
    outer loop
      vertex 12.8947 20.583 0
      vertex 13.4952 19.0189 8
      vertex 13.4952 19.0189 0
    endloop
  endfacet
  facet normal 0.945534 0.325523 0
    outer loop
      vertex 12.8947 20.583 8
      vertex 12.3493 22.1672 0
      vertex 12.3493 22.1672 8
    endloop
  endfacet
  facet normal 0.945534 0.325523 0
    outer loop
      vertex 12.3493 22.1672 0
      vertex 12.8947 20.583 8
      vertex 12.8947 20.583 0
    endloop
  endfacet
  facet normal 0.956295 0.292404 0
    outer loop
      vertex 12.3493 22.1672 8
      vertex 11.8594 23.7694 0
      vertex 11.8594 23.7694 8
    endloop
  endfacet
  facet normal 0.956295 0.292404 0
    outer loop
      vertex 11.8594 23.7694 0
      vertex 12.3493 22.1672 8
      vertex 12.3493 22.1672 0
    endloop
  endfacet
  facet normal 0.965914 0.258862 0
    outer loop
      vertex 11.8594 23.7694 8
      vertex 11.7976 24 0
      vertex 11.7976 24 8
    endloop
  endfacet
  facet normal 0.965914 0.258862 0
    outer loop
      vertex 11.7976 24 0
      vertex 11.8594 23.7694 8
      vertex 11.8594 23.7694 0
    endloop
  endfacet
  facet normal 0 1 0
    outer loop
      vertex 11.7976 24 8
      vertex 5 24 2
      vertex 5 24 8
    endloop
  endfacet
  facet normal 0 1 0
    outer loop
      vertex 5 24 2
      vertex 11.7976 24 0
      vertex -5 24 2
    endloop
  endfacet
  facet normal 0 1 -0
    outer loop
      vertex 11.7976 24 0
      vertex 5 24 2
      vertex 11.7976 24 8
    endloop
  endfacet
  facet normal 0 1 -0
    outer loop
      vertex -5 24 2
      vertex -11.7976 24 8
      vertex -5 24 8
    endloop
  endfacet
  facet normal 0 1 0
    outer loop
      vertex -5 24 2
      vertex -11.7976 24 0
      vertex -11.7976 24 8
    endloop
  endfacet
  facet normal 0 1 0
    outer loop
      vertex -11.7976 24 0
      vertex -5 24 2
      vertex 11.7976 24 0
    endloop
  endfacet
  facet normal -0.965914 0.258862 0
    outer loop
      vertex -11.8594 23.7694 0
      vertex -11.7976 24 8
      vertex -11.7976 24 0
    endloop
  endfacet
  facet normal -0.965914 0.258862 0
    outer loop
      vertex -11.7976 24 8
      vertex -11.8594 23.7694 0
      vertex -11.8594 23.7694 8
    endloop
  endfacet
  facet normal -0.956295 0.292404 0
    outer loop
      vertex -12.3493 22.1672 0
      vertex -11.8594 23.7694 8
      vertex -11.8594 23.7694 0
    endloop
  endfacet
  facet normal -0.956295 0.292404 0
    outer loop
      vertex -11.8594 23.7694 8
      vertex -12.3493 22.1672 0
      vertex -12.3493 22.1672 8
    endloop
  endfacet
  facet normal -0.945534 0.325523 0
    outer loop
      vertex -12.8947 20.583 0
      vertex -12.3493 22.1672 8
      vertex -12.3493 22.1672 0
    endloop
  endfacet
  facet normal -0.945534 0.325523 0
    outer loop
      vertex -12.3493 22.1672 8
      vertex -12.8947 20.583 0
      vertex -12.8947 20.583 8
    endloop
  endfacet
  facet normal -0.933561 0.358419 0
    outer loop
      vertex -13.4952 19.0189 0
      vertex -12.8947 20.583 8
      vertex -12.8947 20.583 0
    endloop
  endfacet
  facet normal -0.933561 0.358419 0
    outer loop
      vertex -12.8947 20.583 8
      vertex -13.4952 19.0189 0
      vertex -13.4952 19.0189 8
    endloop
  endfacet
  facet normal -0.920519 0.390697 0
    outer loop
      vertex -14.1498 17.4766 0
      vertex -13.4952 19.0189 8
      vertex -13.4952 19.0189 0
    endloop
  endfacet
  facet normal -0.920519 0.390697 0
    outer loop
      vertex -13.4952 19.0189 8
      vertex -14.1498 17.4766 0
      vertex -14.1498 17.4766 8
    endloop
  endfacet
  facet normal -0.906294 0.422647 0
    outer loop
      vertex -14.8579 15.9582 0
      vertex -14.1498 17.4766 8
      vertex -14.1498 17.4766 0
    endloop
  endfacet
  facet normal -0.906294 0.422647 0
    outer loop
      vertex -14.1498 17.4766 8
      vertex -14.8579 15.9582 0
      vertex -14.8579 15.9582 8
    endloop
  endfacet
  facet normal -0.891011 0.453981 0
    outer loop
      vertex -15.6185 14.4654 0
      vertex -14.8579 15.9582 8
      vertex -14.8579 15.9582 0
    endloop
  endfacet
  facet normal -0.891011 0.453981 0
    outer loop
      vertex -14.8579 15.9582 8
      vertex -15.6185 14.4654 0
      vertex -15.6185 14.4654 8
    endloop
  endfacet
  facet normal -0.874616 0.484817 0
    outer loop
      vertex -16.4308 13 0
      vertex -15.6185 14.4654 8
      vertex -15.6185 14.4654 0
    endloop
  endfacet
  facet normal -0.874616 0.484817 0
    outer loop
      vertex -15.6185 14.4654 8
      vertex -16.4308 13 0
      vertex -16.4308 13 8
    endloop
  endfacet
  facet normal -0.857189 0.515001 0
    outer loop
      vertex -17 12.0526 0
      vertex -16.4308 13 8
      vertex -16.4308 13 0
    endloop
  endfacet
  facet normal -0.857189 0.515001 0
    outer loop
      vertex -16.4308 13 8
      vertex -17 12.0526 0
      vertex -17 12.0526 8
    endloop
  endfacet
  facet normal -1 0 0
    outer loop
      vertex -17 2 0
      vertex -17 12.0526 8
      vertex -17 12.0526 0
    endloop
  endfacet
  facet normal -1 -0 0
    outer loop
      vertex -17 12.0526 8
      vertex -17 2 0
      vertex -17 2 8
    endloop
  endfacet
  facet normal 0 -1 0
    outer loop
      vertex -17 2 0
      vertex -15.3857 2 8
      vertex -17 2 8
    endloop
  endfacet
  facet normal 0 -1 -0
    outer loop
      vertex -15.3857 2 8
      vertex -17 2 0
      vertex -15.3857 2 0
    endloop
  endfacet
  facet normal 0.700141 -0.714005 0
    outer loop
      vertex -15.3857 2 0
      vertex -15.3548 2.0303 8
      vertex -15.3857 2 8
    endloop
  endfacet
  facet normal 0.700141 -0.714005 0
    outer loop
      vertex -15.3548 2.0303 8
      vertex -15.3857 2 0
      vertex -15.3548 2.0303 0
    endloop
  endfacet
  facet normal 0.647458 -0.762101 0
    outer loop
      vertex -15.3548 2.0303 0
      vertex -15.2035 2.15884 8
      vertex -15.3548 2.0303 8
    endloop
  endfacet
  facet normal 0.647458 -0.762101 0
    outer loop
      vertex -15.2035 2.15884 8
      vertex -15.3548 2.0303 0
      vertex -15.2035 2.15884 0
    endloop
  endfacet
  facet normal 0.590774 -0.806837 0
    outer loop
      vertex -15.2035 2.15884 0
      vertex -15.0433 2.27614 8
      vertex -15.2035 2.15884 8
    endloop
  endfacet
  facet normal 0.590774 -0.806837 0
    outer loop
      vertex -15.0433 2.27614 8
      vertex -15.2035 2.15884 0
      vertex -15.0433 2.27614 0
    endloop
  endfacet
  facet normal 0.530841 -0.847472 0
    outer loop
      vertex -15.0433 2.27614 0
      vertex -14.875 2.38156 8
      vertex -15.0433 2.27614 8
    endloop
  endfacet
  facet normal 0.530841 -0.847472 0
    outer loop
      vertex -14.875 2.38156 8
      vertex -15.0433 2.27614 0
      vertex -14.875 2.38156 0
    endloop
  endfacet
  facet normal 0.468443 -0.883494 0
    outer loop
      vertex -14.875 2.38156 0
      vertex -14.6996 2.47456 8
      vertex -14.875 2.38156 8
    endloop
  endfacet
  facet normal 0.468443 -0.883494 0
    outer loop
      vertex -14.6996 2.47456 8
      vertex -14.875 2.38156 0
      vertex -14.6996 2.47456 0
    endloop
  endfacet
  facet normal 0.403422 -0.915014 0
    outer loop
      vertex -14.6996 2.47456 0
      vertex -14.5179 2.55467 8
      vertex -14.6996 2.47456 8
    endloop
  endfacet
  facet normal 0.403422 -0.915014 0
    outer loop
      vertex -14.5179 2.55467 8
      vertex -14.6996 2.47456 0
      vertex -14.5179 2.55467 0
    endloop
  endfacet
  facet normal 0.336356 -0.941735 0
    outer loop
      vertex -14.5179 2.55467 0
      vertex -14.3309 2.62146 8
      vertex -14.5179 2.55467 8
    endloop
  endfacet
  facet normal 0.336356 -0.941735 0
    outer loop
      vertex -14.3309 2.62146 8
      vertex -14.5179 2.55467 0
      vertex -14.3309 2.62146 0
    endloop
  endfacet
  facet normal 0.267602 -0.963529 0
    outer loop
      vertex -14.3309 2.62146 0
      vertex -14.1396 2.67459 8
      vertex -14.3309 2.62146 8
    endloop
  endfacet
  facet normal 0.267602 -0.963529 0
    outer loop
      vertex -14.1396 2.67459 8
      vertex -14.3309 2.62146 0
      vertex -14.1396 2.67459 0
    endloop
  endfacet
  facet normal 0.19723 -0.980357 0
    outer loop
      vertex -14.1396 2.67459 0
      vertex -13.9449 2.71376 8
      vertex -14.1396 2.67459 8
    endloop
  endfacet
  facet normal 0.19723 -0.980357 0
    outer loop
      vertex -13.9449 2.71376 8
      vertex -14.1396 2.67459 0
      vertex -13.9449 2.71376 0
    endloop
  endfacet
  facet normal 0.126092 -0.992019 0
    outer loop
      vertex -13.9449 2.71376 0
      vertex -13.7479 2.7388 8
      vertex -13.9449 2.71376 8
    endloop
  endfacet
  facet normal 0.126092 -0.992019 0
    outer loop
      vertex -13.7479 2.7388 8
      vertex -13.9449 2.71376 0
      vertex -13.7479 2.7388 0
    endloop
  endfacet
  facet normal 0.0540811 -0.998537 0
    outer loop
      vertex -13.7479 2.7388 0
      vertex -13.5496 2.74954 8
      vertex -13.7479 2.7388 8
    endloop
  endfacet
  facet normal 0.0540811 -0.998537 0
    outer loop
      vertex -13.5496 2.74954 8
      vertex -13.7479 2.7388 0
      vertex -13.5496 2.74954 0
    endloop
  endfacet
  facet normal -0.0180323 -0.999837 0
    outer loop
      vertex -13.5496 2.74954 0
      vertex -13.3511 2.74596 8
      vertex -13.5496 2.74954 8
    endloop
  endfacet
  facet normal -0.0180323 -0.999837 -0
    outer loop
      vertex -13.3511 2.74596 8
      vertex -13.5496 2.74954 0
      vertex -13.3511 2.74596 0
    endloop
  endfacet
  facet normal -0.0901724 -0.995926 0
    outer loop
      vertex -13.3511 2.74596 0
      vertex -13.1534 2.72806 8
      vertex -13.3511 2.74596 8
    endloop
  endfacet
  facet normal -0.0901724 -0.995926 -0
    outer loop
      vertex -13.1534 2.72806 8
      vertex -13.3511 2.74596 0
      vertex -13.1534 2.72806 0
    endloop
  endfacet
  facet normal -0.16172 -0.986837 0
    outer loop
      vertex -13.1534 2.72806 0
      vertex -12.9574 2.69594 8
      vertex -13.1534 2.72806 8
    endloop
  endfacet
  facet normal -0.16172 -0.986837 -0
    outer loop
      vertex -12.9574 2.69594 8
      vertex -13.1534 2.72806 0
      vertex -12.9574 2.69594 0
    endloop
  endfacet
  facet normal -0.232639 -0.972563 0
    outer loop
      vertex -12.9574 2.69594 0
      vertex -12.7643 2.64975 8
      vertex -12.9574 2.69594 8
    endloop
  endfacet
  facet normal -0.232639 -0.972563 -0
    outer loop
      vertex -12.7643 2.64975 8
      vertex -12.9574 2.69594 0
      vertex -12.7643 2.64975 0
    endloop
  endfacet
  facet normal -0.302052 -0.953291 0
    outer loop
      vertex -12.7643 2.64975 0
      vertex -12.575 2.58977 8
      vertex -12.7643 2.64975 8
    endloop
  endfacet
  facet normal -0.302052 -0.953291 -0
    outer loop
      vertex -12.575 2.58977 8
      vertex -12.7643 2.64975 0
      vertex -12.575 2.58977 0
    endloop
  endfacet
  facet normal -0.370088 -0.928997 0
    outer loop
      vertex -12.575 2.58977 0
      vertex -12.3905 2.51627 8
      vertex -12.575 2.58977 8
    endloop
  endfacet
  facet normal -0.370088 -0.928997 -0
    outer loop
      vertex -12.3905 2.51627 8
      vertex -12.575 2.58977 0
      vertex -12.3905 2.51627 0
    endloop
  endfacet
  facet normal -0.436339 -0.899782 0
    outer loop
      vertex -12.3905 2.51627 0
      vertex -12.2119 2.42966 8
      vertex -12.3905 2.51627 8
    endloop
  endfacet
  facet normal -0.436339 -0.899782 -0
    outer loop
      vertex -12.2119 2.42966 8
      vertex -12.3905 2.51627 0
      vertex -12.2119 2.42966 0
    endloop
  endfacet
  facet normal -0.499946 -0.866056 0
    outer loop
      vertex -12.2119 2.42966 0
      vertex -12.0399 2.33037 8
      vertex -12.2119 2.42966 8
    endloop
  endfacet
  facet normal -0.499946 -0.866056 -0
    outer loop
      vertex -12.0399 2.33037 8
      vertex -12.2119 2.42966 0
      vertex -12.0399 2.33037 0
    endloop
  endfacet
  facet normal -0.561331 -0.827591 0
    outer loop
      vertex -12.0399 2.33037 0
      vertex -11.8756 2.21893 8
      vertex -12.0399 2.33037 8
    endloop
  endfacet
  facet normal -0.561331 -0.827591 -0
    outer loop
      vertex -11.8756 2.21893 8
      vertex -12.0399 2.33037 0
      vertex -11.8756 2.21893 0
    endloop
  endfacet
  facet normal -0.619399 -0.785076 0
    outer loop
      vertex -11.8756 2.21893 0
      vertex -11.7197 2.09593 8
      vertex -11.8756 2.21893 8
    endloop
  endfacet
  facet normal -0.619399 -0.785076 -0
    outer loop
      vertex -11.7197 2.09593 8
      vertex -11.8756 2.21893 0
      vertex -11.7197 2.09593 0
    endloop
  endfacet
  facet normal -0.674456 -0.738315 0
    outer loop
      vertex -11.7197 2.09593 0
      vertex -11.5731 1.96201 8
      vertex -11.7197 2.09593 8
    endloop
  endfacet
  facet normal -0.674456 -0.738315 -0
    outer loop
      vertex -11.5731 1.96201 8
      vertex -11.7197 2.09593 0
      vertex -11.5731 1.96201 0
    endloop
  endfacet
  facet normal -0.72586 -0.687842 0
    outer loop
      vertex -11.4365 1.81786 0
      vertex -11.5731 1.96201 8
      vertex -11.5731 1.96201 0
    endloop
  endfacet
  facet normal -0.72586 -0.687842 0
    outer loop
      vertex -11.5731 1.96201 8
      vertex -11.4365 1.81786 0
      vertex -11.4365 1.81786 8
    endloop
  endfacet
  facet normal -0.773724 -0.633523 0
    outer loop
      vertex -11.3107 1.66422 0
      vertex -11.4365 1.81786 8
      vertex -11.4365 1.81786 0
    endloop
  endfacet
  facet normal -0.773724 -0.633523 0
    outer loop
      vertex -11.4365 1.81786 8
      vertex -11.3107 1.66422 0
      vertex -11.3107 1.66422 8
    endloop
  endfacet
  facet normal -0.817612 -0.575769 0
    outer loop
      vertex -11.1964 1.50191 0
      vertex -11.3107 1.66422 8
      vertex -11.3107 1.66422 0
    endloop
  endfacet
  facet normal -0.817612 -0.575769 0
    outer loop
      vertex -11.3107 1.66422 8
      vertex -11.1964 1.50191 0
      vertex -11.1964 1.50191 8
    endloop
  endfacet
  facet normal -0.85679 -0.515665 0
    outer loop
      vertex -11.094 1.33177 0
      vertex -11.1964 1.50191 8
      vertex -11.1964 1.50191 0
    endloop
  endfacet
  facet normal -0.85679 -0.515665 0
    outer loop
      vertex -11.1964 1.50191 8
      vertex -11.094 1.33177 0
      vertex -11.094 1.33177 8
    endloop
  endfacet
  facet normal -0.891874 -0.452283 0
    outer loop
      vertex -11.0042 1.15469 0
      vertex -11.094 1.33177 8
      vertex -11.094 1.33177 0
    endloop
  endfacet
  facet normal -0.891874 -0.452283 0
    outer loop
      vertex -11.094 1.33177 8
      vertex -11.0042 1.15469 0
      vertex -11.0042 1.15469 8
    endloop
  endfacet
  facet normal -0.922167 -0.386792 0
    outer loop
      vertex -10.9274 0.971588 0
      vertex -11.0042 1.15469 8
      vertex -11.0042 1.15469 0
    endloop
  endfacet
  facet normal -0.922167 -0.386792 0
    outer loop
      vertex -11.0042 1.15469 8
      vertex -10.9274 0.971588 0
      vertex -10.9274 0.971588 8
    endloop
  endfacet
  facet normal -0.947504 -0.319744 0
    outer loop
      vertex -10.8639 0.783417 0
      vertex -10.9274 0.971588 8
      vertex -10.9274 0.971588 0
    endloop
  endfacet
  facet normal -0.947504 -0.319744 0
    outer loop
      vertex -10.9274 0.971588 8
      vertex -10.8639 0.783417 0
      vertex -10.8639 0.783417 8
    endloop
  endfacet
  facet normal -0.968297 -0.249804 0
    outer loop
      vertex -10.8143 0.591156 0
      vertex -10.8639 0.783417 8
      vertex -10.8639 0.783417 0
    endloop
  endfacet
  facet normal -0.968297 -0.249804 0
    outer loop
      vertex -10.8639 0.783417 8
      vertex -10.8143 0.591156 0
      vertex -10.8143 0.591156 8
    endloop
  endfacet
  facet normal -0.983705 -0.179791 0
    outer loop
      vertex -10.7786 0.395828 0
      vertex -10.8143 0.591156 8
      vertex -10.8143 0.591156 0
    endloop
  endfacet
  facet normal -0.983705 -0.179791 0
    outer loop
      vertex -10.8143 0.591156 8
      vertex -10.7786 0.395828 0
      vertex -10.7786 0.395828 8
    endloop
  endfacet
  facet normal -0.994175 -0.107776 0
    outer loop
      vertex -10.7572 0.198425 0
      vertex -10.7786 0.395828 8
      vertex -10.7786 0.395828 0
    endloop
  endfacet
  facet normal -0.994175 -0.107776 0
    outer loop
      vertex -10.7786 0.395828 8
      vertex -10.7572 0.198425 0
      vertex -10.7572 0.198425 8
    endloop
  endfacet
  facet normal -0.999342 -0.0362619 0
    outer loop
      vertex -10.75 0 0
      vertex -10.7572 0.198425 8
      vertex -10.7572 0.198425 0
    endloop
  endfacet
  facet normal -0.999342 -0.0362619 0
    outer loop
      vertex -10.7572 0.198425 8
      vertex -10.75 0 0
      vertex -10.75 0 8
    endloop
  endfacet
  facet normal 0 -1 0
    outer loop
      vertex -10.75 0 0
      vertex 10.7518 0 8
      vertex -10.75 0 8
    endloop
  endfacet
  facet normal 0 -1 -0
    outer loop
      vertex 10.7518 0 8
      vertex -10.75 0 0
      vertex 10.7518 0 0
    endloop
  endfacet
  facet normal 1 -0 0
    outer loop
      vertex 10.7518 0 8
      vertex 10.7518 0.0992737 0
      vertex 10.7518 0.0992737 8
    endloop
  endfacet
  facet normal 1 0 0
    outer loop
      vertex 10.7518 0.0992737 0
      vertex 10.7518 0 8
      vertex 10.7518 0 0
    endloop
  endfacet
  facet normal -0.000764032 -0.90496 0.425497
    outer loop
      vertex 8.89629 12.762 0.0995321
      vertex 9.27687 12.8117 0.205919
      vertex 8.69914 12.7495 0.0725927
    endloop
  endfacet
  facet normal 0 -0.906308 0.422618
    outer loop
      vertex 10.4252 13.3616 1.38527
      vertex 10.4563 16.4461 8
      vertex 10.0427 16.4461 8
    endloop
  endfacet
  facet normal -0.0498071 0.422093 0.905183
    outer loop
      vertex 8.69914 0.967484 5.56663
      vertex 8.69914 12.7495 0.0725927
      vertex 8.5 0.963286 5.55763
    endloop
  endfacet
  facet normal -1.6875e-06 -0.906217 0.422812
    outer loop
      vertex 8.5 12.7453 0.06359
      vertex 8.69914 12.7495 0.0725927
      vertex -8.64946 12.7477 0.0686655
    endloop
  endfacet
  facet normal -1.21788e-06 0.906315 -0.422602
    outer loop
      vertex 9.62663 1.11015 5.87259
      vertex 8.89629 0.980046 5.59357
      vertex 8.69914 0.967484 5.56663
    endloop
  endfacet
  facet normal -0.246716 0.409555 0.878291
    outer loop
      vertex 9.08951 1.00084 5.63815
      vertex 9.08951 12.7828 0.144117
      vertex 8.89629 0.980046 5.59357
    endloop
  endfacet
  facet normal -0.149088 0.417895 0.896179
    outer loop
      vertex 8.89629 0.980046 5.59357
      vertex 8.69914 12.7495 0.0725927
      vertex 8.69914 0.967484 5.56663
    endloop
  endfacet
  facet normal -0.148957 0.417905 0.896196
    outer loop
      vertex 8.89629 0.980046 5.59357
      vertex 8.89629 12.762 0.0995321
      vertex 8.69914 12.7495 0.0725927
    endloop
  endfacet
  facet normal -0.0498236 0.422093 0.905182
    outer loop
      vertex 8.69914 12.7495 0.0725927
      vertex 8.5 12.7453 0.06359
      vertex 8.5 0.963286 5.55763
    endloop
  endfacet
  facet normal 0 0.906309 -0.422616
    outer loop
      vertex -9.82716 2.10218 8
      vertex -10.5 1.80852 7.37024
      vertex -10.497 2.10218 8
    endloop
  endfacet
  facet normal 2.55933e-06 0.906308 -0.422618
    outer loop
      vertex -10.5 1.80852 7.37024
      vertex -9.82716 2.10218 8
      vertex -9.74698 1.14769 5.95309
    endloop
  endfacet
  facet normal -4.67415e-06 0.906308 -0.422618
    outer loop
      vertex -8.84729 0.976126 5.58516
      vertex -9.41241 1.05637 5.75725
      vertex -9.74698 1.14769 5.95309
    endloop
  endfacet
  facet normal -0.342161 0.39711 0.851604
    outer loop
      vertex 9.27687 12.8117 0.205919
      vertex 9.08951 12.7828 0.144117
      vertex 9.08951 1.00084 5.63815
    endloop
  endfacet
  facet normal -0.00105838 -0.906571 0.422052
    outer loop
      vertex -10.1525 13.1144 0.855129
      vertex -10.0321 13.0472 0.711085
      vertex -10.2564 13.1863 1.00931
    endloop
  endfacet
  facet normal 5.67937e-05 -0.906339 0.42255
    outer loop
      vertex 9.62663 12.8922 0.378549
      vertex 10.4252 13.3616 1.38527
      vertex 8.69914 12.7495 0.0725927
    endloop
  endfacet
  facet normal 6.89242e-07 -0.906323 0.422586
    outer loop
      vertex -8.64946 12.7477 0.0686655
      vertex 10.4252 13.3616 1.38527
      vertex -10.343 13.2622 1.17212
    endloop
  endfacet
  facet normal -1.63297e-06 -0.90631 0.422614
    outer loop
      vertex 8.69914 12.7495 0.0725927
      vertex 10.4252 13.3616 1.38527
      vertex -8.64946 12.7477 0.0686655
    endloop
  endfacet
  facet normal 0 -0.906308 0.422618
    outer loop
      vertex 10.4252 13.3616 1.38527
      vertex 10.0427 16.4461 8
      vertex 9.70619 16.4461 8
    endloop
  endfacet
  facet normal -0.974899 0.0940947 0.201788
    outer loop
      vertex 10.4252 13.3616 1.38527
      vertex 10.4696 1.66175 7.05549
      vertex 10.4696 13.4438 1.56145
    endloop
  endfacet
  facet normal -0.974894 0.0941048 0.201808
    outer loop
      vertex 10.4696 1.66175 7.05549
      vertex 10.4252 13.3616 1.38527
      vertex 10.4252 1.5796 6.87931
    endloop
  endfacet
  facet normal 0 -0.906302 0.422632
    outer loop
      vertex 5 15.6758 6.34815
      vertex 9.70619 16.4461 8
      vertex 5 16.4461 8
    endloop
  endfacet
  facet normal 5.47393e-06 -0.906308 0.422619
    outer loop
      vertex 9.70619 16.4461 8
      vertex 5 15.6758 6.34815
      vertex 10.4252 13.3616 1.38527
    endloop
  endfacet
  facet normal -0.000436401 -0.905766 0.423778
    outer loop
      vertex 9.45651 12.8482 0.28433
      vertex 9.62663 12.8922 0.378549
      vertex 8.69914 12.7495 0.0725927
    endloop
  endfacet
  facet normal 0 -0.906307 0.422619
    outer loop
      vertex -9.79076 16.4461 8
      vertex -10.1814 16.4461 8
      vertex -10.343 13.2622 1.17212
    endloop
  endfacet
  facet normal 8.02469e-08 0.906312 -0.422609
    outer loop
      vertex 8.69914 0.967484 5.56663
      vertex -8.84729 0.976126 5.58516
      vertex -9.74698 1.14769 5.95309
    endloop
  endfacet
  facet normal 0 -0.904026 0.427478
    outer loop
      vertex -8.5 12.7453 0.06359
      vertex 8.5 12.7453 0.06359
      vertex -8.64946 12.7477 0.0686655
    endloop
  endfacet
  facet normal 0.000395915 -0.90609 0.423084
    outer loop
      vertex -8.84729 12.7581 0.0911236
      vertex -8.64946 12.7477 0.0686655
      vertex -10.343 13.2622 1.17212
    endloop
  endfacet
  facet normal 0 -0.906306 0.422622
    outer loop
      vertex 10.4563 16.4461 8
      vertex 10.5 13.5905 1.87621
      vertex 10.5 16.4461 8
    endloop
  endfacet
  facet normal -0.000364276 -0.906307 0.42262
    outer loop
      vertex 10.5 13.5905 1.87621
      vertex 10.4563 16.4461 8
      vertex 10.4252 13.3616 1.38527
    endloop
  endfacet
  facet normal 0 0.906309 -0.422616
    outer loop
      vertex 9.99633 2.10218 8
      vertex 9.93173 1.21835 6.10461
      vertex 9.84014 2.10218 8
    endloop
  endfacet
  facet normal 0.797116 0.255188 0.547253
    outer loop
      vertex -10.0321 1.26522 6.20512
      vertex -10.1525 13.1144 0.855129
      vertex -10.1525 1.33239 6.34917
    endloop
  endfacet
  facet normal 0 -0.90631 0.422613
    outer loop
      vertex -9.79076 16.4461 8
      vertex -5 13.6483 2
      vertex -5 16.4461 8
    endloop
  endfacet
  facet normal 0 -0.906285 0.422666
    outer loop
      vertex -10.343 13.2622 1.17212
      vertex 5 13.6483 2
      vertex -5 13.6483 2
    endloop
  endfacet
  facet normal -3.86839e-07 -0.906283 0.422672
    outer loop
      vertex 5 13.6483 2
      vertex -10.343 13.2622 1.17212
      vertex 10.4252 13.3616 1.38527
    endloop
  endfacet
  facet normal 8.98997e-06 -0.906308 0.422618
    outer loop
      vertex -10.343 13.2622 1.17212
      vertex -5 13.6483 2
      vertex -9.79076 16.4461 8
    endloop
  endfacet
  facet normal -9.58696e-06 -0.906314 0.422605
    outer loop
      vertex 5 15.6758 6.34815
      vertex 5 13.6483 2
      vertex 10.4252 13.3616 1.38527
    endloop
  endfacet
  facet normal -0.000232485 -0.906493 0.42222
    outer loop
      vertex -9.41241 12.8384 0.263214
      vertex -8.84729 12.7581 0.0911236
      vertex -9.74698 12.9297 0.459048
    endloop
  endfacet
  facet normal 3.10552e-05 0.906302 -0.422631
    outer loop
      vertex 10.4696 1.66175 7.05549
      vertex 10.3617 1.49972 6.70802
      vertex 9.93173 1.21835 6.10461
    endloop
  endfacet
  facet normal 0.000456869 -0.906989 0.421153
    outer loop
      vertex 9.27687 12.8117 0.205919
      vertex 9.45651 12.8482 0.28433
      vertex 8.69914 12.7495 0.0725927
    endloop
  endfacet
  facet normal -2.48873e-07 0.906309 -0.422617
    outer loop
      vertex -9.74698 1.14769 5.95309
      vertex 7.68372 2.10218 8
      vertex 9.93173 1.21835 6.10461
    endloop
  endfacet
  facet normal 0 0.906308 -0.422618
    outer loop
      vertex 7.68372 2.10218 8
      vertex -9.74698 1.14769 5.95309
      vertex -9.82716 2.10218 8
    endloop
  endfacet
  facet normal -2.13547e-07 0.906307 -0.42262
    outer loop
      vertex 9.93173 1.21835 6.10461
      vertex 8.69914 0.967484 5.56663
      vertex -9.74698 1.14769 5.95309
    endloop
  endfacet
  facet normal 0 0.906309 -0.422616
    outer loop
      vertex 10.4696 1.66175 7.05549
      vertex 9.99633 2.10218 8
      vertex 10.4714 2.10218 8
    endloop
  endfacet
  facet normal 3.25801e-07 0.906309 -0.422616
    outer loop
      vertex 9.99633 2.10218 8
      vertex 10.4696 1.66175 7.05549
      vertex 9.93173 1.21835 6.10461
    endloop
  endfacet
  facet normal -0.000148738 0.906314 -0.422606
    outer loop
      vertex 10.5 1.80852 7.37024
      vertex 10.4944 1.74536 7.23479
      vertex 10.4696 1.66175 7.05549
    endloop
  endfacet
  facet normal 0.00349687 -0.906527 0.422134
    outer loop
      vertex 10.4944 13.5274 1.74075
      vertex 10.5 13.5905 1.87621
      vertex 10.4252 13.3616 1.38527
    endloop
  endfacet
  facet normal 0 -0.906307 0.422619
    outer loop
      vertex -10.343 13.2622 1.17212
      vertex -10.1814 16.4461 8
      vertex -10.3956 16.4461 8
    endloop
  endfacet
  facet normal 1 -0 0
    outer loop
      vertex -10.5 2.10218 8
      vertex -10.5 13.5905 1.87621
      vertex -10.5 16.4461 8
    endloop
  endfacet
  facet normal 1 0 0
    outer loop
      vertex -10.5 13.5905 1.87621
      vertex -10.5 2.10218 8
      vertex -10.5 1.80852 7.37024
    endloop
  endfacet
  facet normal 0.733027 0.287466 0.61647
    outer loop
      vertex -9.89647 1.20345 6.07265
      vertex -9.89647 12.9854 0.578615
      vertex -10.0321 1.26522 6.20512
    endloop
  endfacet
  facet normal 0.00269113 -0.905172 0.425037
    outer loop
      vertex -9.89647 12.9854 0.578615
      vertex -9.74698 12.9297 0.459048
      vertex -10.0321 13.0472 0.711085
    endloop
  endfacet
  facet normal -0 0.422618 0.906308
    outer loop
      vertex -8.5 12.7453 0.06359
      vertex 8.5 0.963286 5.55763
      vertex 8.5 12.7453 0.06359
    endloop
  endfacet
  facet normal 0 0.422618 0.906308
    outer loop
      vertex 8.5 0.963286 5.55763
      vertex -8.5 12.7453 0.06359
      vertex -8.5 0.963286 5.55763
    endloop
  endfacet
  facet normal 0 0.90626 -0.42272
    outer loop
      vertex 8.69914 0.967484 5.56663
      vertex 8.5 0.963286 5.55763
      vertex -8.5 0.963286 5.55763
    endloop
  endfacet
  facet normal 8.53546e-05 0.906316 -0.422601
    outer loop
      vertex -10.2564 1.40428 6.50335
      vertex -10.4111 1.55939 6.83597
      vertex -10.5 1.80852 7.37024
    endloop
  endfacet
  facet normal -0.521539 0.360588 0.773287
    outer loop
      vertex 9.62663 1.11015 5.87259
      vertex 9.62663 12.8922 0.378549
      vertex 9.45651 12.8482 0.28433
    endloop
  endfacet
  facet normal -0.000762218 -0.904962 0.425491
    outer loop
      vertex 9.08951 12.7828 0.144117
      vertex 9.27687 12.8117 0.205919
      vertex 8.89629 12.762 0.0995321
    endloop
  endfacet
  facet normal -0.680178 0.309798 0.664366
    outer loop
      vertex 9.93173 1.21835 6.10461
      vertex 9.93173 13.0004 0.610575
      vertex 9.78557 1.16103 5.9817
    endloop
  endfacet
  facet normal 2.60821e-05 0.906284 -0.42267
    outer loop
      vertex 9.93173 1.21835 6.10461
      vertex 9.62663 1.11015 5.87259
      vertex 8.69914 0.967484 5.56663
    endloop
  endfacet
  facet normal -0.866236 0.211156 0.452824
    outer loop
      vertex 10.2797 1.42292 6.54331
      vertex 10.1801 13.1319 0.892773
      vertex 10.1801 1.34994 6.38681
    endloop
  endfacet
  facet normal -0.811893 0.246728 0.529108
    outer loop
      vertex 10.1801 1.34994 6.38681
      vertex 10.1801 13.1319 0.892773
      vertex 10.0637 13.0635 0.746058
    endloop
  endfacet
  facet normal -1 0 0
    outer loop
      vertex 10.5 13.5905 1.87621
      vertex 10.5 2.10218 8
      vertex 10.5 16.4461 8
    endloop
  endfacet
  facet normal -1 0 -0
    outer loop
      vertex 10.5 2.10218 8
      vertex 10.5 13.5905 1.87621
      vertex 10.5 1.80852 7.37024
    endloop
  endfacet
  facet normal 0 0.906309 -0.422616
    outer loop
      vertex 10.5 1.80852 7.37024
      vertex 10.4714 2.10218 8
      vertex 10.5 2.10218 8
    endloop
  endfacet
  facet normal -1.25643e-05 0.906309 -0.422616
    outer loop
      vertex 10.4714 2.10218 8
      vertex 10.5 1.80852 7.37024
      vertex 10.4696 1.66175 7.05549
    endloop
  endfacet
  facet normal -0.992234 0.0525674 0.112732
    outer loop
      vertex 10.4696 13.4438 1.56145
      vertex 10.4944 1.74536 7.23479
      vertex 10.4944 13.5274 1.74075
    endloop
  endfacet
  facet normal -0.992234 0.0525663 0.112729
    outer loop
      vertex 10.4944 1.74536 7.23479
      vertex 10.4696 13.4438 1.56145
      vertex 10.4696 1.66175 7.05549
    endloop
  endfacet
  facet normal 0.661626 0.316894 0.679581
    outer loop
      vertex -9.74698 1.14769 5.95309
      vertex -9.74698 12.9297 0.459048
      vertex -9.89647 12.9854 0.578615
    endloop
  endfacet
  facet normal 0.124136 0.419348 0.899298
    outer loop
      vertex -8.64946 0.965653 5.5627
      vertex -8.64946 12.7477 0.0686655
      vertex -8.84729 12.7581 0.0911236
    endloop
  endfacet
  facet normal 0.661679 0.316875 0.679537
    outer loop
      vertex -9.74698 1.14769 5.95309
      vertex -9.89647 12.9854 0.578615
      vertex -9.89647 1.20345 6.07265
    endloop
  endfacet
  facet normal 0.000330027 0.906442 -0.422331
    outer loop
      vertex -9.74698 1.14769 5.95309
      vertex -9.89647 1.20345 6.07265
      vertex -10.0321 1.26522 6.20512
    endloop
  endfacet
  facet normal 0.733057 0.287452 0.616441
    outer loop
      vertex -9.89647 12.9854 0.578615
      vertex -10.0321 13.0472 0.711085
      vertex -10.0321 1.26522 6.20512
    endloop
  endfacet
  facet normal 0.000117029 0.90635 -0.422529
    outer loop
      vertex -9.74698 1.14769 5.95309
      vertex -10.0321 1.26522 6.20512
      vertex -10.2564 1.40428 6.50335
    endloop
  endfacet
  facet normal 0.0375371 0.422319 0.90567
    outer loop
      vertex -8.64946 0.965653 5.5627
      vertex -8.5 12.7453 0.06359
      vertex -8.64946 12.7477 0.0686655
    endloop
  endfacet
  facet normal 0.0374107 0.422322 0.905673
    outer loop
      vertex -8.5 12.7453 0.06359
      vertex -8.64946 0.965653 5.5627
      vertex -8.5 0.963286 5.55763
    endloop
  endfacet
  facet normal -2.08021e-08 0.906276 -0.422687
    outer loop
      vertex 8.69914 0.967484 5.56663
      vertex -8.5 0.963286 5.55763
      vertex -8.84729 0.976126 5.58516
    endloop
  endfacet
  facet normal -5.29608e-06 0.906306 -0.422622
    outer loop
      vertex -9.74698 1.14769 5.95309
      vertex -10.2564 1.40428 6.50335
      vertex -10.5 1.80852 7.37024
    endloop
  endfacet
  facet normal 0.93985 0.144361 0.309584
    outer loop
      vertex -10.4111 1.55939 6.83597
      vertex -10.343 13.2622 1.17212
      vertex -10.4111 13.3414 1.34193
    endloop
  endfacet
  facet normal 0.939847 0.144364 0.30959
    outer loop
      vertex -10.343 13.2622 1.17212
      vertex -10.4111 1.55939 6.83597
      vertex -10.343 1.4802 6.66616
    endloop
  endfacet
  facet normal -0.00671016 -0.906551 0.422043
    outer loop
      vertex -10.4901 13.5064 1.69572
      vertex -10.4603 13.423 1.51705
      vertex -10.5 13.5905 1.87621
    endloop
  endfacet
  facet normal -0.246749 0.409552 0.878284
    outer loop
      vertex 9.08951 12.7828 0.144117
      vertex 8.89629 12.762 0.0995321
      vertex 8.89629 0.980046 5.59357
    endloop
  endfacet
  facet normal 0 0.906309 -0.422616
    outer loop
      vertex 9.84014 2.10218 8
      vertex 9.93173 1.21835 6.10461
      vertex 7.68372 2.10218 8
    endloop
  endfacet
  facet normal -0.433802 0.380783 0.81659
    outer loop
      vertex 9.27687 12.8117 0.205919
      vertex 9.45651 1.06622 5.77837
      vertex 9.45651 12.8482 0.28433
    endloop
  endfacet
  facet normal -0.433902 0.380761 0.816548
    outer loop
      vertex 9.45651 1.06622 5.77837
      vertex 9.27687 12.8117 0.205919
      vertex 9.27687 1.02966 5.69996
    endloop
  endfacet
  facet normal -4.87953e-05 0.906363 -0.4225
    outer loop
      vertex 9.62663 1.11015 5.87259
      vertex 9.27687 1.02966 5.69996
      vertex 8.89629 0.980046 5.59357
    endloop
  endfacet
  facet normal 0.000132456 0.90623 -0.422785
    outer loop
      vertex 9.93173 1.21835 6.10461
      vertex 9.78557 1.16103 5.9817
      vertex 9.62663 1.11015 5.87259
    endloop
  endfacet
  facet normal -0.603797 0.336884 0.722453
    outer loop
      vertex 9.78557 1.16103 5.9817
      vertex 9.62663 12.8922 0.378549
      vertex 9.62663 1.11015 5.87259
    endloop
  endfacet
  facet normal -0.000108923 0.90634 -0.422549
    outer loop
      vertex 10.3617 1.49972 6.70802
      vertex 10.2797 1.42292 6.54331
      vertex 9.93173 1.21835 6.10461
    endloop
  endfacet
  facet normal -0.947933 0.134592 0.288632
    outer loop
      vertex 10.4252 13.3616 1.38527
      vertex 10.3617 13.2817 1.21398
      vertex 10.3617 1.49972 6.70802
    endloop
  endfacet
  facet normal -0.603695 0.336919 0.722522
    outer loop
      vertex 9.78557 1.16103 5.9817
      vertex 9.78557 12.943 0.487661
      vertex 9.62663 12.8922 0.378549
    endloop
  endfacet
  facet normal -0.811892 0.246728 0.529109
    outer loop
      vertex 10.1801 1.34994 6.38681
      vertex 10.0637 13.0635 0.746058
      vertex 10.0637 1.28153 6.2401
    endloop
  endfacet
  facet normal -0.999299 0.0158262 0.0339394
    outer loop
      vertex 10.4944 13.5274 1.74075
      vertex 10.5 1.80852 7.37024
      vertex 10.5 13.5905 1.87621
    endloop
  endfacet
  facet normal -0.999299 0.0158245 0.0339358
    outer loop
      vertex 10.5 1.80852 7.37024
      vertex 10.4944 13.5274 1.74075
      vertex 10.4944 1.74536 7.23479
    endloop
  endfacet
  facet normal 0.00247633 -0.906453 0.422298
    outer loop
      vertex 10.4696 13.4438 1.56145
      vertex 10.4944 13.5274 1.74075
      vertex 10.4252 13.3616 1.38527
    endloop
  endfacet
  facet normal 0 0.906309 -0.422616
    outer loop
      vertex -10.5 2.10218 8
      vertex -10.497 2.10218 8
      vertex -10.5 1.80852 7.37024
    endloop
  endfacet
  facet normal 0.797129 0.255181 0.547237
    outer loop
      vertex -10.0321 1.26522 6.20512
      vertex -10.0321 13.0472 0.711085
      vertex -10.1525 13.1144 0.855129
    endloop
  endfacet
  facet normal -0.000982985 -0.906549 0.422099
    outer loop
      vertex -10.2564 13.1863 1.00931
      vertex -10.0321 13.0472 0.711085
      vertex -10.343 13.2622 1.17212
    endloop
  endfacet
  facet normal 0.000321072 -0.905797 0.423713
    outer loop
      vertex -9.23068 12.8037 0.188896
      vertex -8.84729 12.7581 0.0911236
      vertex -9.41241 12.8384 0.263214
    endloop
  endfacet
  facet normal 0.124296 0.419342 0.899279
    outer loop
      vertex -8.64946 0.965653 5.5627
      vertex -8.84729 12.7581 0.0911236
      vertex -8.84729 0.976126 5.58516
    endloop
  endfacet
  facet normal 2.49176e-05 0.906396 -0.422429
    outer loop
      vertex -8.5 0.963286 5.55763
      vertex -8.64946 0.965653 5.5627
      vertex -8.84729 0.976126 5.58516
    endloop
  endfacet
  facet normal 0.222627 0.412013 0.883563
    outer loop
      vertex -8.84729 0.976126 5.58516
      vertex -8.84729 12.7581 0.0911236
      vertex -9.04169 12.7769 0.131339
    endloop
  endfacet
  facet normal -0.000237624 0.906258 -0.422724
    outer loop
      vertex -10.2564 1.40428 6.50335
      vertex -10.343 1.4802 6.66616
      vertex -10.4111 1.55939 6.83597
    endloop
  endfacet
  facet normal 0.900786 0.183528 0.393577
    outer loop
      vertex -10.343 1.4802 6.66616
      vertex -10.2564 13.1863 1.00931
      vertex -10.343 13.2622 1.17212
    endloop
  endfacet
  facet normal 0.900794 0.183521 0.393562
    outer loop
      vertex -10.2564 13.1863 1.00931
      vertex -10.343 1.4802 6.66616
      vertex -10.2564 1.40428 6.50335
    endloop
  endfacet
  facet normal 0.96907 0.104296 0.223662
    outer loop
      vertex -10.4603 1.64105 7.01109
      vertex -10.4111 13.3414 1.34193
      vertex -10.4603 13.423 1.51705
    endloop
  endfacet
  facet normal 0.969078 0.104283 0.223635
    outer loop
      vertex -10.4111 13.3414 1.34193
      vertex -10.4603 1.64105 7.01109
      vertex -10.4111 1.55939 6.83597
    endloop
  endfacet
  facet normal 0 -0.906306 0.422622
    outer loop
      vertex -10.4882 16.4461 8
      vertex -10.5 16.4461 8
      vertex -10.5 13.5905 1.87621
    endloop
  endfacet
  facet normal -0.342044 0.397127 0.851643
    outer loop
      vertex 9.27687 1.02966 5.69996
      vertex 9.27687 12.8117 0.205919
      vertex 9.08951 1.00084 5.63815
    endloop
  endfacet
  facet normal -0.000121573 0.906463 -0.422286
    outer loop
      vertex 9.27687 1.02966 5.69996
      vertex 9.08951 1.00084 5.63815
      vertex 8.89629 0.980046 5.59357
    endloop
  endfacet
  facet normal -0.521434 0.360617 0.773344
    outer loop
      vertex 9.62663 1.11015 5.87259
      vertex 9.45651 12.8482 0.28433
      vertex 9.45651 1.06622 5.77837
    endloop
  endfacet
  facet normal -3.3332e-05 0.906351 -0.422525
    outer loop
      vertex 9.62663 1.11015 5.87259
      vertex 9.45651 1.06622 5.77837
      vertex 9.27687 1.02966 5.69996
    endloop
  endfacet
  facet normal -0.000451617 0.906359 -0.422507
    outer loop
      vertex 10.4696 1.66175 7.05549
      vertex 10.4252 1.5796 6.87931
      vertex 10.3617 1.49972 6.70802
    endloop
  endfacet
  facet normal -0.947928 0.134597 0.288644
    outer loop
      vertex 10.4252 1.5796 6.87931
      vertex 10.4252 13.3616 1.38527
      vertex 10.3617 1.49972 6.70802
    endloop
  endfacet
  facet normal -0.749686 0.279687 0.599789
    outer loop
      vertex 10.0637 1.28153 6.2401
      vertex 10.0637 13.0635 0.746058
      vertex 9.93173 1.21835 6.10461
    endloop
  endfacet
  facet normal 9.43936e-05 0.906278 -0.422681
    outer loop
      vertex 10.2797 1.42292 6.54331
      vertex 10.1801 1.34994 6.38681
      vertex 9.93173 1.21835 6.10461
    endloop
  endfacet
  facet normal -0.866254 0.211142 0.452795
    outer loop
      vertex 10.2797 1.42292 6.54331
      vertex 10.2797 13.2049 1.04928
      vertex 10.1801 13.1319 0.892773
    endloop
  endfacet
  facet normal -0.00478556 -0.903866 0.42779
    outer loop
      vertex 9.78557 12.943 0.487661
      vertex 9.93173 13.0004 0.610575
      vertex 9.62663 12.8922 0.378549
    endloop
  endfacet
  facet normal -0.680279 0.30976 0.664281
    outer loop
      vertex 9.93173 13.0004 0.610575
      vertex 9.78557 12.943 0.487661
      vertex 9.78557 1.16103 5.9817
    endloop
  endfacet
  facet normal -0.000137108 -0.906404 0.422412
    outer loop
      vertex -9.74698 12.9297 0.459048
      vertex -8.84729 12.7581 0.0911236
      vertex -10.0321 13.0472 0.711085
    endloop
  endfacet
  facet normal 1.662e-05 -0.906292 0.422653
    outer loop
      vertex -10.0321 13.0472 0.711085
      vertex -8.84729 12.7581 0.0911236
      vertex -10.343 13.2622 1.17212
    endloop
  endfacet
  facet normal 0.853423 0.220276 0.472385
    outer loop
      vertex -10.1525 13.1144 0.855129
      vertex -10.2564 13.1863 1.00931
      vertex -10.2564 1.40428 6.50335
    endloop
  endfacet
  facet normal -5.75399e-06 0.906307 -0.42262
    outer loop
      vertex -9.41241 1.05637 5.75725
      vertex -9.5851 1.0985 5.8476
      vertex -9.74698 1.14769 5.95309
    endloop
  endfacet
  facet normal 0.499952 0.36601 0.784911
    outer loop
      vertex -9.41241 1.05637 5.75725
      vertex -9.5851 12.8805 0.353559
      vertex -9.5851 1.0985 5.8476
    endloop
  endfacet
  facet normal 0.000130063 0.906353 -0.422521
    outer loop
      vertex -10.0321 1.26522 6.20512
      vertex -10.1525 1.33239 6.34917
      vertex -10.2564 1.40428 6.50335
    endloop
  endfacet
  facet normal 0.853416 0.220281 0.472395
    outer loop
      vertex -10.1525 1.33239 6.34917
      vertex -10.1525 13.1144 0.855129
      vertex -10.2564 1.40428 6.50335
    endloop
  endfacet
  facet normal 7.12509e-05 0.906315 -0.422603
    outer loop
      vertex -10.4111 1.55939 6.83597
      vertex -10.4603 1.64105 7.01109
      vertex -10.5 1.80852 7.37024
    endloop
  endfacet
  facet normal -0.000270775 0.906301 -0.422634
    outer loop
      vertex -10.4603 1.64105 7.01109
      vertex -10.4901 1.72436 7.18976
      vertex -10.5 1.80852 7.37024
    endloop
  endfacet
  facet normal 0.998766 0.020986 0.0450045
    outer loop
      vertex -10.4901 13.5064 1.69572
      vertex -10.5 13.5905 1.87621
      vertex -10.5 1.80852 7.37024
    endloop
  endfacet
  facet normal -0.00330307 -0.906776 0.421599
    outer loop
      vertex -10.4111 13.3414 1.34193
      vertex -10.343 13.2622 1.17212
      vertex -10.4603 13.423 1.51705
    endloop
  endfacet
  facet normal -0.00112601 -0.906094 0.423074
    outer loop
      vertex 10.3617 13.2817 1.21398
      vertex 10.4252 13.3616 1.38527
      vertex 10.2797 13.2049 1.04928
    endloop
  endfacet
  facet normal -0.911502 0.173821 0.372761
    outer loop
      vertex 10.2797 13.2049 1.04928
      vertex 10.3617 1.49972 6.70802
      vertex 10.3617 13.2817 1.21398
    endloop
  endfacet
  facet normal -0.91151 0.173814 0.372745
    outer loop
      vertex 10.3617 1.49972 6.70802
      vertex 10.2797 13.2049 1.04928
      vertex 10.2797 1.42292 6.54331
    endloop
  endfacet
  facet normal -6.73764e-05 0.906333 -0.422564
    outer loop
      vertex 10.1801 1.34994 6.38681
      vertex 10.0637 1.28153 6.2401
      vertex 9.93173 1.21835 6.10461
    endloop
  endfacet
  facet normal -0.749597 0.279727 0.59988
    outer loop
      vertex 10.0637 13.0635 0.746058
      vertex 9.93173 13.0004 0.610575
      vertex 9.93173 1.21835 6.10461
    endloop
  endfacet
  facet normal -0.00202077 -0.905748 0.423812
    outer loop
      vertex 10.0637 13.0635 0.746058
      vertex 10.2797 13.2049 1.04928
      vertex 9.93173 13.0004 0.610575
    endloop
  endfacet
  facet normal -0.00128586 -0.90595 0.423383
    outer loop
      vertex 10.1801 13.1319 0.892773
      vertex 10.2797 13.2049 1.04928
      vertex 10.0637 13.0635 0.746058
    endloop
  endfacet
  facet normal -1.77377e-05 0.906291 -0.422654
    outer loop
      vertex -8.84729 0.976126 5.58516
      vertex -9.04169 0.994879 5.62538
      vertex -9.41241 1.05637 5.75725
    endloop
  endfacet
  facet normal 0.411371 0.385202 0.826071
    outer loop
      vertex -9.23068 12.8037 0.188896
      vertex -9.41241 12.8384 0.263214
      vertex -9.41241 1.05637 5.75725
    endloop
  endfacet
  facet normal 0.988771 0.0631549 0.135436
    outer loop
      vertex -10.4603 1.64105 7.01109
      vertex -10.4603 13.423 1.51705
      vertex -10.4901 13.5064 1.69572
    endloop
  endfacet
  facet normal 0.998767 0.0209842 0.0450009
    outer loop
      vertex -10.4901 1.72436 7.18976
      vertex -10.4901 13.5064 1.69572
      vertex -10.5 1.80852 7.37024
    endloop
  endfacet
  facet normal 0.988767 0.0631664 0.135461
    outer loop
      vertex -10.4603 1.64105 7.01109
      vertex -10.4901 13.5064 1.69572
      vertex -10.4901 1.72436 7.18976
    endloop
  endfacet
  facet normal 0.000316838 -0.906461 0.42229
    outer loop
      vertex 9.93173 13.0004 0.610575
      vertex 10.2797 13.2049 1.04928
      vertex 9.62663 12.8922 0.378549
    endloop
  endfacet
  facet normal -0.000293624 -0.906233 0.422779
    outer loop
      vertex 10.2797 13.2049 1.04928
      vertex 10.4252 13.3616 1.38527
      vertex 9.62663 12.8922 0.378549
    endloop
  endfacet
  facet normal 0.000980148 -0.905699 0.423921
    outer loop
      vertex -9.5851 12.8805 0.353559
      vertex -9.41241 12.8384 0.263214
      vertex -9.74698 12.9297 0.459048
    endloop
  endfacet
  facet normal 0.499887 0.366025 0.784945
    outer loop
      vertex -9.41241 1.05637 5.75725
      vertex -9.41241 12.8384 0.263214
      vertex -9.5851 12.8805 0.353559
    endloop
  endfacet
  facet normal -0.00108755 -0.907906 0.419173
    outer loop
      vertex -9.04169 12.7769 0.131339
      vertex -8.84729 12.7581 0.0911236
      vertex -9.23068 12.8037 0.188896
    endloop
  endfacet
  facet normal 0.222552 0.412019 0.883578
    outer loop
      vertex -8.84729 0.976126 5.58516
      vertex -9.04169 12.7769 0.131339
      vertex -9.04169 0.994879 5.62538
    endloop
  endfacet
  facet normal 0 -0.906306 0.422622
    outer loop
      vertex -10.5 13.5905 1.87621
      vertex -10.4641 16.4461 8
      vertex -10.4882 16.4461 8
    endloop
  endfacet
  facet normal -0.000416069 -0.906305 0.422624
    outer loop
      vertex -10.4641 16.4461 8
      vertex -10.5 13.5905 1.87621
      vertex -10.4603 13.423 1.51705
    endloop
  endfacet
  facet normal 0 -0.906305 0.422624
    outer loop
      vertex -10.4603 13.423 1.51705
      vertex -10.3956 16.4461 8
      vertex -10.4641 16.4461 8
    endloop
  endfacet
  facet normal 0.000346795 -0.906306 0.422621
    outer loop
      vertex -10.3956 16.4461 8
      vertex -10.4603 13.423 1.51705
      vertex -10.343 13.2622 1.17212
    endloop
  endfacet
  facet normal 0.411291 0.385219 0.826103
    outer loop
      vertex -9.23068 1.02172 5.68293
      vertex -9.23068 12.8037 0.188896
      vertex -9.41241 1.05637 5.75725
    endloop
  endfacet
  facet normal 0.318456 0.400616 0.859123
    outer loop
      vertex -9.04169 12.7769 0.131339
      vertex -9.23068 12.8037 0.188896
      vertex -9.23068 1.02172 5.68293
    endloop
  endfacet
  facet normal 0.583781 0.343129 0.735841
    outer loop
      vertex -9.5851 1.0985 5.8476
      vertex -9.5851 12.8805 0.353559
      vertex -9.74698 1.14769 5.95309
    endloop
  endfacet
  facet normal 0.583792 0.343125 0.735834
    outer loop
      vertex -9.5851 12.8805 0.353559
      vertex -9.74698 12.9297 0.459048
      vertex -9.74698 1.14769 5.95309
    endloop
  endfacet
  facet normal 0.318506 0.400608 0.859108
    outer loop
      vertex -9.04169 0.994879 5.62538
      vertex -9.04169 12.7769 0.131339
      vertex -9.23068 1.02172 5.68293
    endloop
  endfacet
  facet normal 0.000180842 0.906505 -0.422195
    outer loop
      vertex -9.04169 0.994879 5.62538
      vertex -9.23068 1.02172 5.68293
      vertex -9.41241 1.05637 5.75725
    endloop
  endfacet
  facet normal 1 -0 0
    outer loop
      vertex -5 16.4461 8
      vertex -5 24 2
      vertex -5 24 8
    endloop
  endfacet
  facet normal 1 0 0
    outer loop
      vertex -5 24 2
      vertex -5 16.4461 8
      vertex -5 13.6483 2
    endloop
  endfacet
  facet normal -1 0 0
    outer loop
      vertex 5 15.6758 6.34815
      vertex 5 24 8
      vertex 5 24 2
    endloop
  endfacet
  facet normal -1 -0 0
    outer loop
      vertex 5 24 8
      vertex 5 15.6758 6.34815
      vertex 5 16.4461 8
    endloop
  endfacet
  facet normal -1 0 -0
    outer loop
      vertex 5 15.6758 6.34815
      vertex 5 24 2
      vertex 5 13.6483 2
    endloop
  endfacet
  facet normal -0 0 1
    outer loop
      vertex -5 24 2
      vertex 5 13.6483 2
      vertex 5 24 2
    endloop
  endfacet
  facet normal 0 0 1
    outer loop
      vertex 5 13.6483 2
      vertex -5 24 2
      vertex -5 13.6483 2
    endloop
  endfacet
endsolid OpenSCAD_Model
